<svg width="17" height="17" viewBox="0 0 17 17" fill="none" xmlns="http://www.w3.org/2000/svg">
<g clip-path="url(#clip0_44_535)">
<path d="M3.76756 10.2733L3.17581 12.4824L1.01299 12.5281C0.366629 11.3293 0 9.95761 0 8.5C0 7.09049 0.342789 5.7613 0.950406 4.59093H0.950871L2.87639 4.94394L3.71988 6.8579C3.54334 7.37259 3.44711 7.92509 3.44711 8.5C3.44718 9.12395 3.5602 9.72177 3.76756 10.2733Z" fill="#FBBB00"/>
<path d="M16.8515 6.91209C16.9491 7.42628 17 7.9573 17 8.5C17 9.10855 16.936 9.70215 16.8142 10.2747C16.4004 12.2232 15.3192 13.9246 13.8214 15.1286L13.821 15.1281L11.3957 15.0044L11.0524 12.8616C12.0462 12.2788 12.8229 11.3667 13.2321 10.2747H8.68689V6.91209H13.2984H16.8515Z" fill="#518EF8"/>
<path d="M13.8208 15.1281L13.8213 15.1286C12.3647 16.2994 10.5142 17 8.49995 17C5.26294 17 2.44861 15.1907 1.01294 12.5282L3.7675 10.2733C4.48532 12.1891 6.33337 13.5529 8.49995 13.5529C9.43119 13.5529 10.3036 13.3011 11.0523 12.8616L13.8208 15.1281Z" fill="#28B446"/>
<path d="M13.9256 1.95686L11.1719 4.21122C10.3971 3.72692 9.48125 3.44715 8.50003 3.44715C6.28442 3.44715 4.4018 4.87346 3.71995 6.85791L0.950904 4.59093H0.950439C2.36509 1.86346 5.21492 0 8.50003 0C10.5624 0 12.4535 0.734652 13.9256 1.95686Z" fill="#F14336"/>
</g>
<defs>
<clipPath id="clip0_44_535">
<rect width="17" height="17" fill="white"/>
</clipPath>
</defs>
</svg>
