<svg width="1686" height="622" viewBox="0 0 1686 622" fill="none" xmlns="http://www.w3.org/2000/svg">
<path d="M766.423 21.9278C767.053 22.4666 767.684 23.0054 768.333 23.5606C777.729 32.0789 783.557 44.4411 788.423 55.9278C789.059 55.0925 789.059 55.0925 789.708 54.2403C808.024 30.4099 832.565 14.4911 862.395 9.31817C891.534 5.56095 921.2 11.6255 945.153 28.8965C947.642 30.841 950.038 32.8588 952.423 34.9278C953.635 35.9236 953.635 35.9236 954.872 36.9395C973.53 52.7853 984.899 74.5738 989.798 98.3028C989.966 99.1105 990.134 99.9183 990.307 100.751C991.399 106.517 991.604 112.067 991.423 117.928C992.091 117.907 992.76 117.886 993.448 117.864C1022.67 117.072 1045.18 122.749 1067.07 143.124C1083.77 159.258 1093.22 181.653 1093.66 204.862C1093.76 229.524 1085.75 251.657 1068.66 269.693C1044.93 293.42 1018.52 297.503 986.361 297.678C983.74 297.706 981.12 297.736 978.499 297.768C972.141 297.841 965.782 297.893 959.423 297.928C959.724 298.392 960.025 298.856 960.335 299.334C967.313 310.099 974.241 320.892 981.057 331.761C982.31 333.749 983.578 335.727 984.853 337.701C992.174 349.206 995.77 359.099 992.767 372.955C989.593 382.71 983.339 390.773 974.423 395.928C965.922 399.731 957.057 400.078 947.886 400.062C946.957 400.064 946.027 400.066 945.07 400.068C941.972 400.075 938.874 400.074 935.776 400.073C933.548 400.076 931.32 400.079 929.092 400.083C923.05 400.092 917.009 400.094 910.967 400.095C907.189 400.096 903.412 400.098 899.634 400.101C887.125 400.109 874.616 400.114 862.107 400.113C861.434 400.113 860.76 400.113 860.067 400.113C859.392 400.113 858.718 400.113 858.024 400.113C847.104 400.113 836.184 400.122 825.264 400.136C814.031 400.151 802.799 400.157 791.566 400.157C785.268 400.156 778.97 400.159 772.672 400.17C766.746 400.18 760.82 400.18 754.893 400.172C752.725 400.171 750.556 400.174 748.387 400.18C715.613 400.265 715.613 400.265 703.314 388.982C695.369 380.349 692.868 370.983 693.134 359.455C694.109 347.561 701.416 338.187 707.768 328.471C710.486 324.295 713.14 320.08 715.798 315.865C716.273 315.117 716.748 314.369 717.237 313.598C719.741 309.644 722.194 305.664 724.597 301.649C725.129 300.761 725.661 299.873 726.209 298.958C726.609 298.288 727.01 297.618 727.423 296.928C726.753 296.934 726.082 296.941 725.391 296.948C718.35 297.015 711.308 297.06 704.266 297.093C701.646 297.108 699.025 297.128 696.405 297.154C692.617 297.191 688.829 297.208 685.04 297.221C683.311 297.244 683.311 297.244 681.547 297.268C658.243 297.272 636.737 288.008 620.255 271.791C619.31 270.838 618.365 269.884 617.423 268.928C616.408 267.928 616.408 267.928 615.372 266.908C600.041 250.731 592.815 227.551 593.004 205.567C593.908 179.869 604.274 158.02 622.689 140.334C637.923 126.928 637.923 126.928 644.423 126.928C644.048 126.357 643.673 125.786 643.286 125.197C631.121 105.923 627.61 84.006 632.454 61.8106C637.583 40.3322 651.063 22.6176 669.62 10.9869C700.719 -7.28349 740.241 -2.17897 766.423 21.9278ZM658.931 34.0372C646.088 48.8401 639.904 67.332 641.216 86.8868C643.175 106.203 652.942 123.133 667.536 135.76C683.211 147.531 701.899 152.604 721.349 150.032C740.81 147.002 756.769 136.094 768.611 120.576C779.473 104.704 783.205 85.6824 779.763 66.8106C776.165 51.826 769.263 40.53 758.423 29.9278C757.789 29.2613 757.155 28.5949 756.501 27.9083C745.129 16.7623 727.476 11.1547 711.923 10.6778C691.292 10.9099 673.103 19.2591 658.931 34.0372ZM805.04 52.3379C802.738 54.7999 800.567 57.3277 798.423 59.9278C797.392 61.1034 797.392 61.1034 796.341 62.3028C791.148 69.0722 790.839 74.9615 790.687 83.1705C790.248 104.91 780.955 125.009 765.298 140.115C746.641 156.35 724.573 161.266 700.423 159.928C681.835 157.919 664.963 148.624 652.423 134.928C641.926 139.477 634.388 144.793 626.423 152.928C625.61 153.709 624.796 154.49 623.958 155.295C610.037 169.43 604.111 189.84 604.111 209.265C604.421 227.873 611.249 244.87 623.423 258.928C624.022 259.722 624.622 260.516 625.239 261.334C638.676 277.294 659.118 284.897 679.335 286.693C687.902 287.345 696.497 287.435 705.085 287.553C707.485 287.595 709.884 287.656 712.282 287.737C715.773 287.853 719.259 287.903 722.751 287.94C724.351 288.012 724.351 288.012 725.984 288.086C730.503 288.075 733.283 288.048 736.6 284.79C738.405 282.239 739.935 279.673 741.423 276.928C742.375 275.433 743.335 273.943 744.31 272.463C745.246 270.974 746.179 269.483 747.111 267.99C748.159 266.321 749.207 264.652 750.255 262.982C750.782 262.142 751.309 261.301 751.851 260.435C754.325 256.489 756.811 252.552 759.298 248.615C759.787 247.84 760.277 247.065 760.781 246.266C765.239 239.208 769.723 232.167 774.207 225.127C779.477 216.849 784.72 208.554 789.955 200.254C791.441 197.899 792.928 195.544 794.415 193.189C794.912 192.403 795.408 191.617 795.92 190.806C796.916 189.229 797.915 187.653 798.915 186.078C801.505 181.994 804.059 177.893 806.564 173.756C807.084 172.906 807.605 172.056 808.142 171.18C809.127 169.57 810.102 167.955 811.064 166.332C816.692 157.194 824.295 150.901 834.837 148.342C845.339 146.66 855 148.013 864.111 153.553C871.826 159.163 876.63 167.565 881.486 175.615C882.62 177.472 883.755 179.327 884.892 181.182C885.472 182.129 886.052 183.077 886.65 184.053C889.547 188.75 892.515 193.402 895.486 198.053C896.661 199.895 897.837 201.738 899.013 203.58C899.584 204.475 900.155 205.369 900.743 206.291C903.356 210.392 905.953 214.503 908.548 218.615C909.037 219.39 909.526 220.164 910.029 220.962C911.981 224.055 913.931 227.148 915.882 230.241C926.104 246.447 936.345 262.642 946.736 278.74C947.429 279.817 947.429 279.817 948.136 280.915C950.073 284.081 950.073 284.081 952.423 286.928C953.965 287.032 955.511 287.066 957.056 287.073C958.045 287.079 959.035 287.086 960.054 287.092C961.136 287.094 962.218 287.095 963.333 287.096C964.448 287.099 965.563 287.102 966.711 287.106C969.086 287.111 971.461 287.113 973.836 287.113C977.418 287.115 981 287.133 984.581 287.152C1011.8 287.222 1037.29 284.744 1057.71 264.674C1058.6 263.768 1059.5 262.861 1060.42 261.928C1061.16 261.197 1061.91 260.466 1062.67 259.713C1077.41 244.28 1083.04 223.918 1082.69 203.014C1081.92 182.756 1072.31 162.976 1057.54 149.147C1036.36 130.787 1013.52 126.772 986.353 128.709C984.902 128.817 984.902 128.817 983.423 128.928C980.931 125.19 981.138 122.194 981.048 117.865C979.941 90.3137 969.009 66.1796 949.423 46.9278C948.28 45.787 948.28 45.787 947.114 44.6231C905.833 5.68953 842.887 14.0566 805.04 52.3379ZM820.423 170.928C817.939 174.559 815.644 178.293 813.361 182.053C812.041 184.195 810.721 186.337 809.4 188.479C808.737 189.556 808.075 190.633 807.393 191.743C804.386 196.605 801.314 201.424 798.236 206.24C797.078 208.055 795.92 209.87 794.763 211.686C794.205 212.561 793.646 213.437 793.071 214.339C788.992 220.747 784.943 227.176 780.891 233.601C777.902 238.339 774.91 243.074 771.918 247.81C769.442 251.73 766.967 255.651 764.493 259.572C758.563 268.972 752.609 278.355 746.639 287.729C741.86 295.235 737.103 302.753 732.357 310.279C730.374 313.423 728.387 316.563 726.396 319.701C721.318 327.707 716.272 335.732 711.298 343.803C710.836 344.546 710.375 345.289 709.899 346.055C705.165 353.777 703.335 359.747 704.423 368.928C706.615 376.124 710.942 382.037 717.423 385.928C723.772 388.613 729.485 389.361 736.328 389.309C737.285 389.313 738.242 389.318 739.228 389.323C742.413 389.335 745.597 389.325 748.782 389.316C751.075 389.32 753.367 389.325 755.659 389.332C761.869 389.346 768.08 389.34 774.291 389.331C780.797 389.323 787.303 389.33 793.809 389.335C805.433 389.341 817.057 389.331 828.681 389.316C839.208 389.303 849.736 389.305 860.263 389.319C872.505 389.335 884.747 389.341 896.989 389.332C903.463 389.327 909.937 389.327 916.411 389.337C922.498 389.345 928.585 389.339 934.672 389.322C936.903 389.318 939.134 389.319 941.365 389.326C944.416 389.334 947.467 389.324 950.518 389.309C951.835 389.319 951.835 389.319 953.179 389.329C962.608 389.24 969.643 386.719 976.47 380.154C981.716 374.174 983.263 367.885 982.907 359.994C980.961 347.669 970.832 335.943 964.207 325.697C961.584 321.625 959.002 317.527 956.423 313.428C952.107 306.583 947.77 299.752 943.423 292.928C937.557 283.717 931.716 274.491 925.891 265.254C923.403 261.311 920.913 257.37 918.423 253.428C917.423 251.844 916.423 250.261 915.423 248.678C914.928 247.894 914.433 247.11 913.923 246.303C897.423 220.178 897.423 220.178 895.923 217.803C894.923 216.219 893.922 214.635 892.921 213.051C890.429 209.107 887.941 205.162 885.458 201.213C882.98 197.271 880.489 193.338 877.992 189.407C876.905 187.689 875.823 185.969 874.744 184.245C873.044 181.528 871.328 178.821 869.611 176.115C868.838 174.87 868.838 174.87 868.05 173.6C863.362 166.27 857.983 160.454 849.423 157.928C836.333 156.259 828.265 160.806 820.423 170.928Z" fill="#A9B1BD"/>
<path d="M704.423 41.9278C706.597 43.8238 708.477 45.7866 710.423 47.9278C713.589 46.527 715.704 44.8355 718.173 42.4278C722.789 38.332 726.572 36.9081 732.716 36.9395C738.867 37.4031 743.262 39.1272 748.048 43.1153C753.132 49.1357 755.143 54.296 754.802 62.2559C753.7 70.0267 749.086 74.8379 743.423 79.9278C744.31 80.8765 745.197 81.8253 746.111 82.8028C751.861 89.6052 755.323 96.259 754.837 105.322C753.756 112.126 750.516 116.371 745.302 120.701C739.342 124.592 733.336 124.639 726.423 123.928C720.024 122.123 715.771 117.765 711.423 112.928C710.987 113.314 710.552 113.701 710.103 114.1C702.407 120.829 696.888 124.318 686.501 124.205C680.48 123.663 676.869 121.341 672.611 117.178C668.615 111.241 666.213 105.215 667.423 97.9278C669.418 91.0652 673.103 86.575 678.423 81.9278C677.019 78.7609 675.316 76.6042 672.923 74.1153C668.375 68.9998 666.887 63.9351 667.114 57.0371C668.08 50.4381 671.169 45.1874 676.443 41.1504C685.732 35.4155 695.406 35.8594 704.423 41.9278Z" fill="#A9B1BD"/>
<path d="M843.235 217.553C844.29 217.528 845.346 217.504 846.433 217.479C854.084 217.45 859.795 218.468 865.446 223.857C872.813 234.46 871.625 244.25 870.435 256.611C870.331 257.707 870.227 258.802 870.12 259.931C869.899 262.237 869.677 264.542 869.451 266.847C869.112 270.35 868.788 273.855 868.464 277.359C868.247 279.61 868.029 281.861 867.81 284.111C867.669 285.665 867.669 285.665 867.525 287.25C866.652 295.912 865.519 304.913 859.286 311.455C854.303 315.393 847.873 317.707 841.493 317.307C834.774 316.077 828.812 313.684 824.704 308.043C820.39 300.919 819.772 292.224 819.036 284.111C818.929 283.015 818.823 281.918 818.713 280.789C818.491 278.486 818.273 276.182 818.06 273.878C817.736 270.371 817.396 266.865 817.054 263.359C816.839 261.11 816.624 258.861 816.411 256.611C816.311 255.574 816.211 254.536 816.108 253.467C814.383 234.608 814.383 234.608 819.423 225.928C826.18 218.162 833.424 217.565 843.235 217.553Z" fill="#A9B1BD"/>
<path d="M859.697 332.041C864.391 337.171 866.694 342.671 866.923 349.615C866.545 356.691 864.019 362.136 859.286 367.35C854.445 371.45 847.841 373.713 841.49 373.303C833.893 371.924 828.529 369.036 823.763 362.924C819.866 357.118 819.546 350.733 820.423 343.928C822.407 337.497 825.623 332.763 831.263 329.053C840.596 324.192 851.597 325.158 859.697 332.041Z" fill="#A9B1BD"/>
<path d="M1015.49 12.5528C1034.57 12.9036 1052.36 19.9868 1066.42 32.9278C1067.26 33.6767 1068.1 34.4257 1068.97 35.1973C1084.39 49.6593 1092.98 70.159 1093.67 91.1778C1093.76 94.0298 1093.8 95.3963 1092.13 97.7364C1090.42 98.9278 1090.42 98.9278 1086.8 98.7403C1085.13 98.3381 1085.13 98.3381 1083.42 97.9278C1082.19 95.4664 1082.12 93.1799 1081.88 90.4691C1080.07 70.9293 1072.52 53.7045 1057.63 40.4434C1043.72 29.5 1028.77 25.2501 1011.48 23.5528C1008.42 22.9278 1008.42 22.9278 1006.42 19.9278C1007.05 13.5111 1009.37 12.623 1015.49 12.5528Z" fill="#A9B1BD"/>
<path d="M1013.3 43.6153C1027.21 43.9944 1039.13 49.9162 1049.13 59.377C1057.48 68.6689 1062.76 81.3142 1062.42 93.9278C1061.36 97.0528 1061.36 97.0528 1059.42 98.9278C1056.36 99.3653 1056.36 99.3653 1053.42 98.9278C1050.65 96.1598 1050.72 93.2095 1050.17 89.4903C1048.39 78.9397 1044.21 69.4882 1035.42 62.9278C1028.25 58.3714 1021.69 56.2292 1013.24 55.545C1009.82 54.7944 1008.53 53.6819 1006.42 50.9278C1006.67 45.7345 1008.02 44.041 1013.3 43.6153Z" fill="#A9B1BD"/>
<path d="M1012.99 75.5528C1018.59 75.633 1022.35 77.0493 1026.42 80.9278C1030.25 85.9937 1031.07 90.7016 1030.42 96.9278C1028.42 98.9278 1028.42 98.9278 1025.49 99.3028C1022.42 98.9278 1022.42 98.9278 1020.74 97.3653C1019.42 94.9278 1019.42 94.9278 1018.24 91.3653C1016.29 87.6714 1016.03 87.4295 1012.36 86.1778C1011.67 85.9973 1010.98 85.8169 1010.26 85.6309C1008.42 84.9278 1008.42 84.9278 1006.42 81.9278C1007.06 76.6064 1007.72 75.7618 1012.99 75.5528Z" fill="#A9B1BD"/>
<path d="M36.42 598H32.22L9 562.72V598H4.8V556.06H9L32.22 591.28V556.06H36.42V598ZM75.5728 579.94C75.5728 581.38 75.5328 582.48 75.4528 583.24H48.2728C48.3928 585.72 48.9928 587.84 50.0728 589.6C51.1528 591.36 52.5728 592.7 54.3328 593.62C56.0928 594.5 58.0128 594.94 60.0928 594.94C62.8128 594.94 65.0928 594.28 66.9328 592.96C68.8128 591.64 70.0528 589.86 70.6528 587.62H75.0928C74.2928 590.82 72.5728 593.44 69.9328 595.48C67.3328 597.48 64.0528 598.48 60.0928 598.48C57.0128 598.48 54.2528 597.8 51.8128 596.44C49.3728 595.04 47.4528 593.08 46.0528 590.56C44.6928 588 44.0128 585.02 44.0128 581.62C44.0128 578.22 44.6928 575.24 46.0528 572.68C47.4128 570.12 49.3128 568.16 51.7528 566.8C54.1928 565.44 56.9728 564.76 60.0928 564.76C63.2128 564.76 65.9328 565.44 68.2528 566.8C70.6128 568.16 72.4128 570 73.6528 572.32C74.9328 574.6 75.5728 577.14 75.5728 579.94ZM71.3128 579.82C71.3528 577.38 70.8528 575.3 69.8128 573.58C68.8128 571.86 67.4328 570.56 65.6728 569.68C63.9128 568.8 61.9928 568.36 59.9128 568.36C56.7928 568.36 54.1328 569.36 51.9328 571.36C49.7328 573.36 48.5128 576.18 48.2728 579.82H71.3128ZM88.717 568.78V589.12C88.717 591.12 89.097 592.5 89.857 593.26C90.617 594.02 91.957 594.4 93.877 594.4H97.717V598H93.217C90.257 598 88.057 597.32 86.617 595.96C85.177 594.56 84.457 592.28 84.457 589.12V568.78H79.897V565.24H84.457V557.02H88.717V565.24H97.717V568.78H88.717ZM147.844 565.24L137.584 598H133.384L124.324 570.52L115.264 598H111.004L100.744 565.24H105.004L113.164 593.74L122.344 565.24H126.544L135.604 593.8L143.704 565.24H147.844ZM167.91 598.48C164.83 598.48 162.05 597.8 159.57 596.44C157.13 595.04 155.19 593.08 153.75 590.56C152.35 588 151.65 585.02 151.65 581.62C151.65 578.22 152.37 575.26 153.81 572.74C155.25 570.18 157.21 568.22 159.69 566.86C162.17 565.46 164.95 564.76 168.03 564.76C171.11 564.76 173.89 565.46 176.37 566.86C178.89 568.22 180.85 570.18 182.25 572.74C183.69 575.26 184.41 578.22 184.41 581.62C184.41 584.98 183.69 587.94 182.25 590.5C180.81 593.06 178.83 595.04 176.31 596.44C173.79 597.8 170.99 598.48 167.91 598.48ZM167.91 594.82C170.07 594.82 172.07 594.34 173.91 593.38C175.75 592.38 177.23 590.9 178.35 588.94C179.51 586.94 180.09 584.5 180.09 581.62C180.09 578.74 179.53 576.32 178.41 574.36C177.29 572.36 175.81 570.88 173.97 569.92C172.13 568.92 170.13 568.42 167.97 568.42C165.81 568.42 163.81 568.92 161.97 569.92C160.13 570.88 158.65 572.36 157.53 574.36C156.45 576.32 155.91 578.74 155.91 581.62C155.91 584.5 156.45 586.94 157.53 588.94C158.65 590.9 160.11 592.38 161.91 593.38C163.75 594.34 165.75 594.82 167.91 594.82ZM196.266 571.06C197.186 569.02 198.586 567.44 200.466 566.32C202.386 565.2 204.726 564.64 207.486 564.64V569.02H206.346C203.306 569.02 200.866 569.84 199.026 571.48C197.186 573.12 196.266 575.86 196.266 579.7V598H192.066V565.24H196.266V571.06ZM231.504 598L218.004 583.3V598H213.804V553.6H218.004V579.88L231.204 565.24H237.084L221.544 581.56L237.204 598H231.504ZM257.177 581.62C257.177 578.22 257.857 575.26 259.217 572.74C260.577 570.18 262.457 568.22 264.857 566.86C267.257 565.46 269.997 564.76 273.077 564.76C277.117 564.76 280.437 565.76 283.037 567.76C285.677 569.76 287.377 572.48 288.137 575.92H283.637C283.077 573.56 281.857 571.72 279.977 570.4C278.137 569.04 275.837 568.36 273.077 568.36C270.877 568.36 268.897 568.86 267.137 569.86C265.377 570.86 263.977 572.36 262.937 574.36C261.937 576.32 261.437 578.74 261.437 581.62C261.437 584.5 261.937 586.94 262.937 588.94C263.977 590.94 265.377 592.44 267.137 593.44C268.897 594.44 270.877 594.94 273.077 594.94C275.837 594.94 278.137 594.28 279.977 592.96C281.857 591.6 283.077 589.72 283.637 587.32H288.137C287.377 590.68 285.677 593.38 283.037 595.42C280.397 597.46 277.077 598.48 273.077 598.48C269.997 598.48 267.257 597.8 264.857 596.44C262.457 595.04 260.577 593.08 259.217 590.56C257.857 588 257.177 585.02 257.177 581.62ZM310.234 598.48C307.154 598.48 304.374 597.8 301.894 596.44C299.454 595.04 297.514 593.08 296.074 590.56C294.674 588 293.974 585.02 293.974 581.62C293.974 578.22 294.694 575.26 296.134 572.74C297.574 570.18 299.534 568.22 302.014 566.86C304.494 565.46 307.274 564.76 310.354 564.76C313.434 564.76 316.214 565.46 318.694 566.86C321.214 568.22 323.174 570.18 324.574 572.74C326.014 575.26 326.734 578.22 326.734 581.62C326.734 584.98 326.014 587.94 324.574 590.5C323.134 593.06 321.154 595.04 318.634 596.44C316.114 597.8 313.314 598.48 310.234 598.48ZM310.234 594.82C312.394 594.82 314.394 594.34 316.234 593.38C318.074 592.38 319.554 590.9 320.674 588.94C321.834 586.94 322.414 584.5 322.414 581.62C322.414 578.74 321.854 576.32 320.734 574.36C319.614 572.36 318.134 570.88 316.294 569.92C314.454 568.92 312.454 568.42 310.294 568.42C308.134 568.42 306.134 568.92 304.294 569.92C302.454 570.88 300.974 572.36 299.854 574.36C298.774 576.32 298.234 578.74 298.234 581.62C298.234 584.5 298.774 586.94 299.854 588.94C300.974 590.9 302.434 592.38 304.234 593.38C306.074 594.34 308.074 594.82 310.234 594.82ZM349.75 564.64C353.67 564.64 356.87 565.86 359.35 568.3C361.83 570.7 363.07 574.2 363.07 578.8V598H358.93V579.28C358.93 575.72 358.03 573 356.23 571.12C354.47 569.24 352.05 568.3 348.97 568.3C345.81 568.3 343.29 569.3 341.41 571.3C339.53 573.3 338.59 576.24 338.59 580.12V598H334.39V565.24H338.59V570.82C339.63 568.82 341.13 567.3 343.09 566.26C345.05 565.18 347.27 564.64 349.75 564.64ZM387.719 564.64C391.639 564.64 394.839 565.86 397.319 568.3C399.799 570.7 401.039 574.2 401.039 578.8V598H396.899V579.28C396.899 575.72 395.999 573 394.199 571.12C392.439 569.24 390.019 568.3 386.939 568.3C383.779 568.3 381.259 569.3 379.379 571.3C377.499 573.3 376.559 576.24 376.559 580.12V598H372.359V565.24H376.559V570.82C377.599 568.82 379.099 567.3 381.059 566.26C383.019 565.18 385.239 564.64 387.719 564.64ZM439.967 579.94C439.967 581.38 439.927 582.48 439.847 583.24H412.667C412.787 585.72 413.387 587.84 414.467 589.6C415.547 591.36 416.967 592.7 418.727 593.62C420.487 594.5 422.407 594.94 424.487 594.94C427.207 594.94 429.487 594.28 431.327 592.96C433.207 591.64 434.447 589.86 435.047 587.62H439.487C438.687 590.82 436.967 593.44 434.327 595.48C431.727 597.48 428.447 598.48 424.487 598.48C421.407 598.48 418.647 597.8 416.207 596.44C413.767 595.04 411.847 593.08 410.447 590.56C409.087 588 408.407 585.02 408.407 581.62C408.407 578.22 409.087 575.24 410.447 572.68C411.807 570.12 413.707 568.16 416.147 566.8C418.587 565.44 421.367 564.76 424.487 564.76C427.607 564.76 430.327 565.44 432.647 566.8C435.007 568.16 436.807 570 438.047 572.32C439.327 574.6 439.967 577.14 439.967 579.94ZM435.707 579.82C435.747 577.38 435.247 575.3 434.207 573.58C433.207 571.86 431.827 570.56 430.067 569.68C428.307 568.8 426.387 568.36 424.307 568.36C421.187 568.36 418.527 569.36 416.327 571.36C414.127 573.36 412.907 576.18 412.667 579.82H435.707ZM445.732 581.62C445.732 578.22 446.412 575.26 447.772 572.74C449.132 570.18 451.012 568.22 453.412 566.86C455.812 565.46 458.552 564.76 461.632 564.76C465.672 564.76 468.992 565.76 471.592 567.76C474.232 569.76 475.932 572.48 476.692 575.92H472.192C471.632 573.56 470.412 571.72 468.532 570.4C466.692 569.04 464.392 568.36 461.632 568.36C459.432 568.36 457.452 568.86 455.692 569.86C453.932 570.86 452.532 572.36 451.492 574.36C450.492 576.32 449.992 578.74 449.992 581.62C449.992 584.5 450.492 586.94 451.492 588.94C452.532 590.94 453.932 592.44 455.692 593.44C457.452 594.44 459.432 594.94 461.632 594.94C464.392 594.94 466.692 594.28 468.532 592.96C470.412 591.6 471.632 589.72 472.192 587.32H476.692C475.932 590.68 474.232 593.38 471.592 595.42C468.952 597.46 465.632 598.48 461.632 598.48C458.552 598.48 455.812 597.8 453.412 596.44C451.012 595.04 449.132 593.08 447.772 590.56C446.412 588 445.732 585.02 445.732 581.62ZM489.908 568.78V589.12C489.908 591.12 490.288 592.5 491.048 593.26C491.808 594.02 493.148 594.4 495.068 594.4H498.908V598H494.408C491.448 598 489.248 597.32 487.808 595.96C486.368 594.56 485.648 592.28 485.648 589.12V568.78H481.088V565.24H485.648V557.02H489.908V565.24H498.908V568.78H489.908ZM507.935 559.06C507.095 559.06 506.375 558.76 505.775 558.16C505.175 557.56 504.875 556.82 504.875 555.94C504.875 555.06 505.175 554.34 505.775 553.78C506.375 553.18 507.095 552.88 507.935 552.88C508.775 552.88 509.495 553.18 510.095 553.78C510.695 554.34 510.995 555.06 510.995 555.94C510.995 556.82 510.695 557.56 510.095 558.16C509.495 558.76 508.775 559.06 507.935 559.06ZM510.035 565.24V598H505.835V565.24H510.035ZM533.886 598.48C530.806 598.48 528.026 597.8 525.546 596.44C523.106 595.04 521.166 593.08 519.726 590.56C518.326 588 517.626 585.02 517.626 581.62C517.626 578.22 518.346 575.26 519.786 572.74C521.226 570.18 523.186 568.22 525.666 566.86C528.146 565.46 530.926 564.76 534.006 564.76C537.086 564.76 539.866 565.46 542.346 566.86C544.866 568.22 546.826 570.18 548.226 572.74C549.666 575.26 550.386 578.22 550.386 581.62C550.386 584.98 549.666 587.94 548.226 590.5C546.786 593.06 544.806 595.04 542.286 596.44C539.766 597.8 536.966 598.48 533.886 598.48ZM533.886 594.82C536.046 594.82 538.046 594.34 539.886 593.38C541.726 592.38 543.206 590.9 544.326 588.94C545.486 586.94 546.066 584.5 546.066 581.62C546.066 578.74 545.506 576.32 544.386 574.36C543.266 572.36 541.786 570.88 539.946 569.92C538.106 568.92 536.106 568.42 533.946 568.42C531.786 568.42 529.786 568.92 527.946 569.92C526.106 570.88 524.626 572.36 523.506 574.36C522.426 576.32 521.886 578.74 521.886 581.62C521.886 584.5 522.426 586.94 523.506 588.94C524.626 590.9 526.086 592.38 527.886 593.38C529.726 594.34 531.726 594.82 533.886 594.82ZM573.402 564.64C577.322 564.64 580.522 565.86 583.002 568.3C585.482 570.7 586.722 574.2 586.722 578.8V598H582.582V579.28C582.582 575.72 581.682 573 579.882 571.12C578.122 569.24 575.702 568.3 572.622 568.3C569.462 568.3 566.942 569.3 565.062 571.3C563.182 573.3 562.242 576.24 562.242 580.12V598H558.042V565.24H562.242V570.82C563.282 568.82 564.782 567.3 566.742 566.26C568.702 565.18 570.922 564.64 573.402 564.64ZM625.376 568.78H617.756V598H613.556V568.78H608.996V565.24H613.556V562.96C613.556 559.4 614.456 556.78 616.256 555.1C618.096 553.42 621.056 552.58 625.136 552.58V556.18C622.416 556.18 620.496 556.7 619.376 557.74C618.296 558.78 617.756 560.52 617.756 562.96V565.24H625.376V568.78ZM630.068 581.56C630.068 578.2 630.728 575.26 632.048 572.74C633.408 570.18 635.268 568.22 637.628 566.86C640.028 565.46 642.728 564.76 645.728 564.76C648.848 564.76 651.528 565.48 653.768 566.92C656.048 568.36 657.688 570.2 658.688 572.44V565.24H662.888V598H658.688V590.74C657.648 592.98 655.988 594.84 653.708 596.32C651.468 597.76 648.788 598.48 645.668 598.48C642.708 598.48 640.028 597.78 637.628 596.38C635.268 594.98 633.408 593 632.048 590.44C630.728 587.88 630.068 584.92 630.068 581.56ZM658.688 581.62C658.688 578.98 658.148 576.66 657.068 574.66C655.988 572.66 654.508 571.12 652.628 570.04C650.788 568.96 648.748 568.42 646.508 568.42C644.188 568.42 642.108 568.94 640.268 569.98C638.428 571.02 636.968 572.54 635.888 574.54C634.848 576.5 634.328 578.84 634.328 581.56C634.328 584.24 634.848 586.6 635.888 588.64C636.968 590.64 638.428 592.18 640.268 593.26C642.108 594.3 644.188 594.82 646.508 594.82C648.748 594.82 650.788 594.28 652.628 593.2C654.508 592.12 655.988 590.58 657.068 588.58C658.148 586.58 658.688 584.26 658.688 581.62ZM674.576 559.06C673.736 559.06 673.016 558.76 672.416 558.16C671.816 557.56 671.516 556.82 671.516 555.94C671.516 555.06 671.816 554.34 672.416 553.78C673.016 553.18 673.736 552.88 674.576 552.88C675.416 552.88 676.136 553.18 676.736 553.78C677.336 554.34 677.636 555.06 677.636 555.94C677.636 556.82 677.336 557.56 676.736 558.16C676.136 558.76 675.416 559.06 674.576 559.06ZM676.676 565.24V598H672.476V565.24H676.676ZM690.387 553.6V598H686.187V553.6H690.387ZM729.538 579.94C729.538 581.38 729.498 582.48 729.418 583.24H702.238C702.358 585.72 702.958 587.84 704.038 589.6C705.118 591.36 706.538 592.7 708.298 593.62C710.058 594.5 711.978 594.94 714.058 594.94C716.778 594.94 719.058 594.28 720.898 592.96C722.778 591.64 724.018 589.86 724.618 587.62H729.058C728.258 590.82 726.538 593.44 723.898 595.48C721.298 597.48 718.018 598.48 714.058 598.48C710.978 598.48 708.218 597.8 705.778 596.44C703.338 595.04 701.418 593.08 700.018 590.56C698.658 588 697.978 585.02 697.978 581.62C697.978 578.22 698.658 575.24 700.018 572.68C701.378 570.12 703.278 568.16 705.718 566.8C708.158 565.44 710.938 564.76 714.058 564.76C717.178 564.76 719.898 565.44 722.218 566.8C724.578 568.16 726.378 570 727.618 572.32C728.898 574.6 729.538 577.14 729.538 579.94ZM725.278 579.82C725.318 577.38 724.818 575.3 723.778 573.58C722.778 571.86 721.398 570.56 719.638 569.68C717.878 568.8 715.958 568.36 713.878 568.36C710.758 568.36 708.098 569.36 705.898 571.36C703.698 573.36 702.478 576.18 702.238 579.82H725.278ZM735.302 581.56C735.302 578.2 735.982 575.26 737.342 572.74C738.702 570.18 740.562 568.22 742.922 566.86C745.322 565.46 748.022 564.76 751.022 564.76C753.902 564.76 756.502 565.46 758.822 566.86C761.142 568.26 762.842 570.08 763.922 572.32V553.6H768.122V598H763.922V590.68C762.922 592.96 761.282 594.84 759.002 596.32C756.722 597.76 754.042 598.48 750.962 598.48C747.962 598.48 745.262 597.78 742.862 596.38C740.502 594.98 738.642 593 737.282 590.44C735.962 587.88 735.302 584.92 735.302 581.56ZM763.922 581.62C763.922 578.98 763.382 576.66 762.302 574.66C761.222 572.66 759.742 571.12 757.862 570.04C756.022 568.96 753.982 568.42 751.742 568.42C749.422 568.42 747.342 568.94 745.502 569.98C743.662 571.02 742.202 572.54 741.122 574.54C740.082 576.5 739.562 578.84 739.562 581.56C739.562 584.24 740.082 586.6 741.122 588.64C742.202 590.64 743.662 592.18 745.502 593.26C747.342 594.3 749.422 594.82 751.742 594.82C753.982 594.82 756.022 594.28 757.862 593.2C759.742 592.12 761.222 590.58 762.302 588.58C763.382 586.58 763.922 584.26 763.922 581.62ZM778.43 598.3C777.55 598.3 776.81 598 776.21 597.4C775.65 596.8 775.37 596.06 775.37 595.18C775.37 594.3 775.65 593.58 776.21 593.02C776.81 592.42 777.55 592.12 778.43 592.12C779.27 592.12 779.97 592.42 780.53 593.02C781.13 593.58 781.43 594.3 781.43 595.18C781.43 596.06 781.13 596.8 780.53 597.4C779.97 598 779.27 598.3 778.43 598.3ZM836.693 598H832.493L809.273 562.72V598H805.073V556.06H809.273L832.493 591.28V556.06H836.693V598ZM875.846 579.94C875.846 581.38 875.806 582.48 875.726 583.24H848.546C848.666 585.72 849.266 587.84 850.346 589.6C851.426 591.36 852.846 592.7 854.606 593.62C856.366 594.5 858.286 594.94 860.366 594.94C863.086 594.94 865.366 594.28 867.206 592.96C869.086 591.64 870.326 589.86 870.926 587.62H875.366C874.566 590.82 872.846 593.44 870.206 595.48C867.606 597.48 864.326 598.48 860.366 598.48C857.286 598.48 854.526 597.8 852.086 596.44C849.646 595.04 847.726 593.08 846.326 590.56C844.966 588 844.286 585.02 844.286 581.62C844.286 578.22 844.966 575.24 846.326 572.68C847.686 570.12 849.586 568.16 852.026 566.8C854.466 565.44 857.246 564.76 860.366 564.76C863.486 564.76 866.206 565.44 868.526 566.8C870.886 568.16 872.686 570 873.926 572.32C875.206 574.6 875.846 577.14 875.846 579.94ZM871.586 579.82C871.626 577.38 871.126 575.3 870.086 573.58C869.086 571.86 867.706 570.56 865.946 569.68C864.186 568.8 862.266 568.36 860.186 568.36C857.066 568.36 854.406 569.36 852.206 571.36C850.006 573.36 848.786 576.18 848.546 579.82H871.586ZM888.99 568.78V589.12C888.99 591.12 889.37 592.5 890.13 593.26C890.89 594.02 892.23 594.4 894.15 594.4H897.99V598H893.49C890.53 598 888.33 597.32 886.89 595.96C885.45 594.56 884.73 592.28 884.73 589.12V568.78H880.17V565.24H884.73V557.02H888.99V565.24H897.99V568.78H888.99ZM948.117 565.24L937.857 598H933.657L924.597 570.52L915.537 598H911.277L901.017 565.24H905.277L913.437 593.74L922.617 565.24H926.817L935.877 593.8L943.977 565.24H948.117ZM968.183 598.48C965.103 598.48 962.323 597.8 959.843 596.44C957.403 595.04 955.463 593.08 954.023 590.56C952.623 588 951.923 585.02 951.923 581.62C951.923 578.22 952.643 575.26 954.083 572.74C955.523 570.18 957.483 568.22 959.963 566.86C962.443 565.46 965.223 564.76 968.303 564.76C971.383 564.76 974.163 565.46 976.643 566.86C979.163 568.22 981.123 570.18 982.523 572.74C983.963 575.26 984.683 578.22 984.683 581.62C984.683 584.98 983.963 587.94 982.523 590.5C981.083 593.06 979.103 595.04 976.583 596.44C974.063 597.8 971.263 598.48 968.183 598.48ZM968.183 594.82C970.343 594.82 972.343 594.34 974.183 593.38C976.023 592.38 977.503 590.9 978.623 588.94C979.783 586.94 980.363 584.5 980.363 581.62C980.363 578.74 979.803 576.32 978.683 574.36C977.563 572.36 976.083 570.88 974.243 569.92C972.403 568.92 970.403 568.42 968.243 568.42C966.083 568.42 964.083 568.92 962.243 569.92C960.403 570.88 958.923 572.36 957.803 574.36C956.723 576.32 956.183 578.74 956.183 581.62C956.183 584.5 956.723 586.94 957.803 588.94C958.923 590.9 960.383 592.38 962.183 593.38C964.023 594.34 966.023 594.82 968.183 594.82ZM996.539 571.06C997.459 569.02 998.859 567.44 1000.74 566.32C1002.66 565.2 1005 564.64 1007.76 564.64V569.02H1006.62C1003.58 569.02 1001.14 569.84 999.299 571.48C997.459 573.12 996.539 575.86 996.539 579.7V598H992.339V565.24H996.539V571.06ZM1031.78 598L1018.28 583.3V598H1014.08V553.6H1018.28V579.88L1031.48 565.24H1037.36L1021.82 581.56L1037.48 598H1031.78ZM1063.57 559.48V575.14H1079.47V578.62H1063.57V594.52H1081.27V598H1059.37V556H1081.27V559.48H1063.57ZM1093.75 571.06C1094.67 569.02 1096.07 567.44 1097.95 566.32C1099.87 565.2 1102.21 564.64 1104.97 564.64V569.02H1103.83C1100.79 569.02 1098.35 569.84 1096.51 571.48C1094.67 573.12 1093.75 575.86 1093.75 579.7V598H1089.55V565.24H1093.75V571.06ZM1115.48 571.06C1116.4 569.02 1117.8 567.44 1119.68 566.32C1121.6 565.2 1123.94 564.64 1126.7 564.64V569.02H1125.56C1122.52 569.02 1120.08 569.84 1118.24 571.48C1116.4 573.12 1115.48 575.86 1115.48 579.7V598H1111.28V565.24H1115.48V571.06ZM1147.36 598.48C1144.28 598.48 1141.5 597.8 1139.02 596.44C1136.58 595.04 1134.64 593.08 1133.2 590.56C1131.8 588 1131.1 585.02 1131.1 581.62C1131.1 578.22 1131.82 575.26 1133.26 572.74C1134.7 570.18 1136.66 568.22 1139.14 566.86C1141.62 565.46 1144.4 564.76 1147.48 564.76C1150.56 564.76 1153.34 565.46 1155.82 566.86C1158.34 568.22 1160.3 570.18 1161.7 572.74C1163.14 575.26 1163.86 578.22 1163.86 581.62C1163.86 584.98 1163.14 587.94 1161.7 590.5C1160.26 593.06 1158.28 595.04 1155.76 596.44C1153.24 597.8 1150.44 598.48 1147.36 598.48ZM1147.36 594.82C1149.52 594.82 1151.52 594.34 1153.36 593.38C1155.2 592.38 1156.68 590.9 1157.8 588.94C1158.96 586.94 1159.54 584.5 1159.54 581.62C1159.54 578.74 1158.98 576.32 1157.86 574.36C1156.74 572.36 1155.26 570.88 1153.42 569.92C1151.58 568.92 1149.58 568.42 1147.42 568.42C1145.26 568.42 1143.26 568.92 1141.42 569.92C1139.58 570.88 1138.1 572.36 1136.98 574.36C1135.9 576.32 1135.36 578.74 1135.36 581.62C1135.36 584.5 1135.9 586.94 1136.98 588.94C1138.1 590.9 1139.56 592.38 1141.36 593.38C1143.2 594.34 1145.2 594.82 1147.36 594.82ZM1175.72 571.06C1176.64 569.02 1178.04 567.44 1179.92 566.32C1181.84 565.2 1184.18 564.64 1186.94 564.64V569.02H1185.8C1182.76 569.02 1180.32 569.84 1178.48 571.48C1176.64 573.12 1175.72 575.86 1175.72 579.7V598H1171.52V565.24H1175.72V571.06ZM1193.98 598.3C1193.1 598.3 1192.36 598 1191.76 597.4C1191.2 596.8 1190.92 596.06 1190.92 595.18C1190.92 594.3 1191.2 593.58 1191.76 593.02C1192.36 592.42 1193.1 592.12 1193.98 592.12C1194.82 592.12 1195.52 592.42 1196.08 593.02C1196.68 593.58 1196.98 594.3 1196.98 595.18C1196.98 596.06 1196.68 596.8 1196.08 597.4C1195.52 598 1194.82 598.3 1193.98 598.3ZM1193.98 572.2C1193.1 572.2 1192.36 571.9 1191.76 571.3C1191.2 570.7 1190.92 569.96 1190.92 569.08C1190.92 568.2 1191.2 567.48 1191.76 566.92C1192.36 566.32 1193.1 566.02 1193.98 566.02C1194.82 566.02 1195.52 566.32 1196.08 566.92C1196.68 567.48 1196.98 568.2 1196.98 569.08C1196.98 569.96 1196.68 570.7 1196.08 571.3C1195.52 571.9 1194.82 572.2 1193.98 572.2ZM1224.82 556.06V582.46C1224.82 586.62 1225.8 589.7 1227.76 591.7C1229.76 593.7 1232.48 594.7 1235.92 594.7C1239.36 594.7 1242.04 593.72 1243.96 591.76C1245.92 589.76 1246.9 586.66 1246.9 582.46V556.06H1251.1V582.4C1251.1 587.72 1249.68 591.72 1246.84 594.4C1244.04 597.08 1240.38 598.42 1235.86 598.42C1231.34 598.42 1227.66 597.08 1224.82 594.4C1222.02 591.72 1220.62 587.72 1220.62 582.4V556.06H1224.82ZM1275.82 564.64C1279.74 564.64 1282.94 565.86 1285.42 568.3C1287.9 570.7 1289.14 574.2 1289.14 578.8V598H1285V579.28C1285 575.72 1284.1 573 1282.3 571.12C1280.54 569.24 1278.12 568.3 1275.04 568.3C1271.88 568.3 1269.36 569.3 1267.48 571.3C1265.6 573.3 1264.66 576.24 1264.66 580.12V598H1260.46V565.24H1264.66V570.82C1265.7 568.82 1267.2 567.3 1269.16 566.26C1271.12 565.18 1273.34 564.64 1275.82 564.64ZM1316.13 598L1302.63 583.3V598H1298.43V553.6H1302.63V579.88L1315.83 565.24H1321.71L1306.17 581.56L1321.83 598H1316.13ZM1342.62 564.64C1346.54 564.64 1349.74 565.86 1352.22 568.3C1354.7 570.7 1355.94 574.2 1355.94 578.8V598H1351.8V579.28C1351.8 575.72 1350.9 573 1349.1 571.12C1347.34 569.24 1344.92 568.3 1341.84 568.3C1338.68 568.3 1336.16 569.3 1334.28 571.3C1332.4 573.3 1331.46 576.24 1331.46 580.12V598H1327.26V565.24H1331.46V570.82C1332.5 568.82 1334 567.3 1335.96 566.26C1337.92 565.18 1340.14 564.64 1342.62 564.64ZM1379.57 598.48C1376.49 598.48 1373.71 597.8 1371.23 596.44C1368.79 595.04 1366.85 593.08 1365.41 590.56C1364.01 588 1363.31 585.02 1363.31 581.62C1363.31 578.22 1364.03 575.26 1365.47 572.74C1366.91 570.18 1368.87 568.22 1371.35 566.86C1373.83 565.46 1376.61 564.76 1379.69 564.76C1382.77 564.76 1385.55 565.46 1388.03 566.86C1390.55 568.22 1392.51 570.18 1393.91 572.74C1395.35 575.26 1396.07 578.22 1396.07 581.62C1396.07 584.98 1395.35 587.94 1393.91 590.5C1392.47 593.06 1390.49 595.04 1387.97 596.44C1385.45 597.8 1382.65 598.48 1379.57 598.48ZM1379.57 594.82C1381.73 594.82 1383.73 594.34 1385.57 593.38C1387.41 592.38 1388.89 590.9 1390.01 588.94C1391.17 586.94 1391.75 584.5 1391.75 581.62C1391.75 578.74 1391.19 576.32 1390.07 574.36C1388.95 572.36 1387.47 570.88 1385.63 569.92C1383.79 568.92 1381.79 568.42 1379.63 568.42C1377.47 568.42 1375.47 568.92 1373.63 569.92C1371.79 570.88 1370.31 572.36 1369.19 574.36C1368.11 576.32 1367.57 578.74 1367.57 581.62C1367.57 584.5 1368.11 586.94 1369.19 588.94C1370.31 590.9 1371.77 592.38 1373.57 593.38C1375.41 594.34 1377.41 594.82 1379.57 594.82ZM1446.93 565.24L1436.67 598H1432.47L1423.41 570.52L1414.35 598H1410.09L1399.83 565.24H1404.09L1412.25 593.74L1421.43 565.24H1425.63L1434.69 593.8L1442.79 565.24H1446.93ZM1468.01 564.64C1471.93 564.64 1475.13 565.86 1477.61 568.3C1480.09 570.7 1481.33 574.2 1481.33 578.8V598H1477.19V579.28C1477.19 575.72 1476.29 573 1474.49 571.12C1472.73 569.24 1470.31 568.3 1467.23 568.3C1464.07 568.3 1461.55 569.3 1459.67 571.3C1457.79 573.3 1456.85 576.24 1456.85 580.12V598H1452.65V565.24H1456.85V570.82C1457.89 568.82 1459.39 567.3 1461.35 566.26C1463.31 565.18 1465.53 564.64 1468.01 564.64ZM1505.17 581.62C1505.17 578.22 1505.85 575.26 1507.21 572.74C1508.57 570.18 1510.45 568.22 1512.85 566.86C1515.25 565.46 1517.99 564.76 1521.07 564.76C1525.11 564.76 1528.43 565.76 1531.03 567.76C1533.67 569.76 1535.37 572.48 1536.13 575.92H1531.63C1531.07 573.56 1529.85 571.72 1527.97 570.4C1526.13 569.04 1523.83 568.36 1521.07 568.36C1518.87 568.36 1516.89 568.86 1515.13 569.86C1513.37 570.86 1511.97 572.36 1510.93 574.36C1509.93 576.32 1509.43 578.74 1509.43 581.62C1509.43 584.5 1509.93 586.94 1510.93 588.94C1511.97 590.94 1513.37 592.44 1515.13 593.44C1516.89 594.44 1518.87 594.94 1521.07 594.94C1523.83 594.94 1526.13 594.28 1527.97 592.96C1529.85 591.6 1531.07 589.72 1531.63 587.32H1536.13C1535.37 590.68 1533.67 593.38 1531.03 595.42C1528.39 597.46 1525.07 598.48 1521.07 598.48C1517.99 598.48 1515.25 597.8 1512.85 596.44C1510.45 595.04 1508.57 593.08 1507.21 590.56C1505.85 588 1505.17 585.02 1505.17 581.62ZM1541.96 581.56C1541.96 578.2 1542.62 575.26 1543.94 572.74C1545.3 570.18 1547.16 568.22 1549.52 566.86C1551.92 565.46 1554.62 564.76 1557.62 564.76C1560.74 564.76 1563.42 565.48 1565.66 566.92C1567.94 568.36 1569.58 570.2 1570.58 572.44V565.24H1574.78V598H1570.58V590.74C1569.54 592.98 1567.88 594.84 1565.6 596.32C1563.36 597.76 1560.68 598.48 1557.56 598.48C1554.6 598.48 1551.92 597.78 1549.52 596.38C1547.16 594.98 1545.3 593 1543.94 590.44C1542.62 587.88 1541.96 584.92 1541.96 581.56ZM1570.58 581.62C1570.58 578.98 1570.04 576.66 1568.96 574.66C1567.88 572.66 1566.4 571.12 1564.52 570.04C1562.68 568.96 1560.64 568.42 1558.4 568.42C1556.08 568.42 1554 568.94 1552.16 569.98C1550.32 571.02 1548.86 572.54 1547.78 574.54C1546.74 576.5 1546.22 578.84 1546.22 581.56C1546.22 584.24 1546.74 586.6 1547.78 588.64C1548.86 590.64 1550.32 592.18 1552.16 593.26C1554 594.3 1556.08 594.82 1558.4 594.82C1560.64 594.82 1562.68 594.28 1564.52 593.2C1566.4 592.12 1567.88 590.58 1568.96 588.58C1570.04 586.58 1570.58 584.26 1570.58 581.62ZM1612.75 565.24V598H1608.55V592.24C1607.59 594.28 1606.11 595.84 1604.11 596.92C1602.11 598 1599.87 598.54 1597.39 598.54C1593.47 598.54 1590.27 597.34 1587.79 594.94C1585.31 592.5 1584.07 588.98 1584.07 584.38V565.24H1588.21V583.9C1588.21 587.46 1589.09 590.18 1590.85 592.06C1592.65 593.94 1595.09 594.88 1598.17 594.88C1601.33 594.88 1603.85 593.88 1605.73 591.88C1607.61 589.88 1608.55 586.94 1608.55 583.06V565.24H1612.75ZM1633.62 598.48C1629.86 598.48 1626.78 597.62 1624.38 595.9C1622.02 594.14 1620.7 591.76 1620.42 588.76H1624.74C1624.94 590.6 1625.8 592.1 1627.32 593.26C1628.88 594.38 1630.96 594.94 1633.56 594.94C1635.84 594.94 1637.62 594.4 1638.9 593.32C1640.22 592.24 1640.88 590.9 1640.88 589.3C1640.88 588.18 1640.52 587.26 1639.8 586.54C1639.08 585.82 1638.16 585.26 1637.04 584.86C1635.96 584.42 1634.48 583.96 1632.6 583.48C1630.16 582.84 1628.18 582.2 1626.66 581.56C1625.14 580.92 1623.84 579.98 1622.76 578.74C1621.72 577.46 1621.2 575.76 1621.2 573.64C1621.2 572.04 1621.68 570.56 1622.64 569.2C1623.6 567.84 1624.96 566.76 1626.72 565.96C1628.48 565.16 1630.48 564.76 1632.72 564.76C1636.24 564.76 1639.08 565.66 1641.24 567.46C1643.4 569.22 1644.56 571.66 1644.72 574.78H1640.52C1640.4 572.86 1639.64 571.32 1638.24 570.16C1636.88 568.96 1635 568.36 1632.6 568.36C1630.48 568.36 1628.76 568.86 1627.44 569.86C1626.12 570.86 1625.46 572.1 1625.46 573.58C1625.46 574.86 1625.84 575.92 1626.6 576.76C1627.4 577.56 1628.38 578.2 1629.54 578.68C1630.7 579.12 1632.26 579.62 1634.22 580.18C1636.58 580.82 1638.46 581.44 1639.86 582.04C1641.26 582.64 1642.46 583.52 1643.46 584.68C1644.46 585.84 1644.98 587.38 1645.02 589.3C1645.02 591.06 1644.54 592.64 1643.58 594.04C1642.62 595.4 1641.28 596.48 1639.56 597.28C1637.84 598.08 1635.86 598.48 1633.62 598.48ZM1682.57 579.94C1682.57 581.38 1682.53 582.48 1682.45 583.24H1655.27C1655.39 585.72 1655.99 587.84 1657.07 589.6C1658.15 591.36 1659.57 592.7 1661.33 593.62C1663.09 594.5 1665.01 594.94 1667.09 594.94C1669.81 594.94 1672.09 594.28 1673.93 592.96C1675.81 591.64 1677.05 589.86 1677.65 587.62H1682.09C1681.29 590.82 1679.57 593.44 1676.93 595.48C1674.33 597.48 1671.05 598.48 1667.09 598.48C1664.01 598.48 1661.25 597.8 1658.81 596.44C1656.37 595.04 1654.45 593.08 1653.05 590.56C1651.69 588 1651.01 585.02 1651.01 581.62C1651.01 578.22 1651.69 575.24 1653.05 572.68C1654.41 570.12 1656.31 568.16 1658.75 566.8C1661.19 565.44 1663.97 564.76 1667.09 564.76C1670.21 564.76 1672.93 565.44 1675.25 566.8C1677.61 568.16 1679.41 570 1680.65 572.32C1681.93 574.6 1682.57 577.14 1682.57 579.94ZM1678.31 579.82C1678.35 577.38 1677.85 575.3 1676.81 573.58C1675.81 571.86 1674.43 570.56 1672.67 569.68C1670.91 568.8 1668.99 568.36 1666.91 568.36C1663.79 568.36 1661.13 569.36 1658.93 571.36C1656.73 573.36 1655.51 576.18 1655.27 579.82H1678.31Z" fill="#A9B1BD"/>
<path d="M677.96 499H669.56L650.54 470.26V499H642.14V457.06H650.54L669.56 485.86V457.06H677.96V499ZM717.161 481.66C717.161 482.86 717.081 483.94 716.921 484.9H692.621C692.821 487.3 693.661 489.18 695.141 490.54C696.621 491.9 698.441 492.58 700.601 492.58C703.721 492.58 705.941 491.24 707.261 488.56H716.321C715.361 491.76 713.521 494.4 710.801 496.48C708.081 498.52 704.741 499.54 700.781 499.54C697.581 499.54 694.701 498.84 692.141 497.44C689.621 496 687.641 493.98 686.201 491.38C684.801 488.78 684.101 485.78 684.101 482.38C684.101 478.94 684.801 475.92 686.201 473.32C687.601 470.72 689.561 468.72 692.081 467.32C694.601 465.92 697.501 465.22 700.781 465.22C703.941 465.22 706.761 465.9 709.241 467.26C711.761 468.62 713.701 470.56 715.061 473.08C716.461 475.56 717.161 478.42 717.161 481.66ZM708.461 479.26C708.421 477.1 707.641 475.38 706.121 474.1C704.601 472.78 702.741 472.12 700.541 472.12C698.461 472.12 696.701 472.76 695.261 474.04C693.861 475.28 693.001 477.02 692.681 479.26H708.461ZM733.072 472.66V488.74C733.072 489.86 733.332 490.68 733.852 491.2C734.412 491.68 735.332 491.92 736.612 491.92H740.512V499H735.232C728.152 499 724.612 495.56 724.612 488.68V472.66H720.652V465.76H724.612V457.54H733.072V465.76H740.512V472.66H733.072ZM792.634 465.76L782.914 499H773.854L767.794 475.78L761.734 499H752.614L742.834 465.76H751.354L757.234 491.08L763.594 465.76H772.474L778.714 491.02L784.594 465.76H792.634ZM811.939 499.54C808.739 499.54 805.859 498.84 803.299 497.44C800.739 496 798.719 493.98 797.239 491.38C795.799 488.78 795.079 485.78 795.079 482.38C795.079 478.98 795.819 475.98 797.299 473.38C798.819 470.78 800.879 468.78 803.479 467.38C806.079 465.94 808.979 465.22 812.179 465.22C815.379 465.22 818.279 465.94 820.879 467.38C823.479 468.78 825.519 470.78 826.999 473.38C828.519 475.98 829.279 478.98 829.279 482.38C829.279 485.78 828.499 488.78 826.939 491.38C825.419 493.98 823.339 496 820.699 497.44C818.099 498.84 815.179 499.54 811.939 499.54ZM811.939 492.22C813.459 492.22 814.879 491.86 816.199 491.14C817.559 490.38 818.639 489.26 819.439 487.78C820.239 486.3 820.639 484.5 820.639 482.38C820.639 479.22 819.799 476.8 818.119 475.12C816.479 473.4 814.459 472.54 812.059 472.54C809.659 472.54 807.639 473.4 805.999 475.12C804.399 476.8 803.599 479.22 803.599 482.38C803.599 485.54 804.379 487.98 805.939 489.7C807.539 491.38 809.539 492.22 811.939 492.22ZM843.841 470.92C844.921 469.16 846.321 467.78 848.041 466.78C849.801 465.78 851.801 465.28 854.041 465.28V474.1H851.821C849.181 474.1 847.181 474.72 845.821 475.96C844.501 477.2 843.841 479.36 843.841 482.44V499H835.441V465.76H843.841V470.92ZM879.379 499L868.099 484.84V499H859.699V454.6H868.099V479.86L879.259 465.76H890.179L875.539 482.44L890.299 499H879.379ZM917.435 463.9V474.4H931.535V481.06H917.435V492.16H933.335V499H909.035V457.06H933.335V463.9H917.435ZM949.368 470.92C950.448 469.16 951.848 467.78 953.568 466.78C955.328 465.78 957.328 465.28 959.568 465.28V474.1H957.348C954.708 474.1 952.708 474.72 951.348 475.96C950.028 477.2 949.368 479.36 949.368 482.44V499H940.968V465.76H949.368V470.92ZM973.626 470.92C974.706 469.16 976.106 467.78 977.826 466.78C979.586 465.78 981.586 465.28 983.826 465.28V474.1H981.606C978.966 474.1 976.966 474.72 975.606 475.96C974.286 477.2 973.626 479.36 973.626 482.44V499H965.226V465.76H973.626V470.92ZM1004.24 499.54C1001.04 499.54 998.164 498.84 995.604 497.44C993.044 496 991.024 493.98 989.544 491.38C988.104 488.78 987.384 485.78 987.384 482.38C987.384 478.98 988.124 475.98 989.604 473.38C991.124 470.78 993.184 468.78 995.784 467.38C998.384 465.94 1001.28 465.22 1004.48 465.22C1007.68 465.22 1010.58 465.94 1013.18 467.38C1015.78 468.78 1017.82 470.78 1019.3 473.38C1020.82 475.98 1021.58 478.98 1021.58 482.38C1021.58 485.78 1020.8 488.78 1019.24 491.38C1017.72 493.98 1015.64 496 1013 497.44C1010.4 498.84 1007.48 499.54 1004.24 499.54ZM1004.24 492.22C1005.76 492.22 1007.18 491.86 1008.5 491.14C1009.86 490.38 1010.94 489.26 1011.74 487.78C1012.54 486.3 1012.94 484.5 1012.94 482.38C1012.94 479.22 1012.1 476.8 1010.42 475.12C1008.78 473.4 1006.76 472.54 1004.36 472.54C1001.96 472.54 999.944 473.4 998.304 475.12C996.704 476.8 995.904 479.22 995.904 482.38C995.904 485.54 996.684 487.98 998.244 489.7C999.844 491.38 1001.84 492.22 1004.24 492.22ZM1036.15 470.92C1037.23 469.16 1038.63 467.78 1040.35 466.78C1042.11 465.78 1044.11 465.28 1046.35 465.28V474.1H1044.13C1041.49 474.1 1039.49 474.72 1038.13 475.96C1036.81 477.2 1036.15 479.36 1036.15 482.44V499H1027.75V465.76H1036.15V470.92Z" fill="#A9B1BD"/>
</svg>
