<svg width="140" height="140" viewBox="0 0 140 140" fill="none" xmlns="http://www.w3.org/2000/svg">
<path d="M89.5206 0.0471757C91.3043 0.0540926 93.0879 0.0587039 94.8715 0.0656208C97.0577 0.0702321 99.2464 0.0794546 101.433 0.0909828C102.553 0.0978997 103.672 0.102511 104.792 0.104817C115.279 0.130179 115.279 0.130178 119.803 1.64037C120.013 1.70954 120.225 1.77871 120.442 1.85018C124.581 3.25201 128.619 5.44697 131.605 8.5296C131.801 8.71175 131.996 8.89389 132.196 9.08295C137.415 14.0516 139.979 20.7379 139.974 27.6687C139.977 28.1183 139.977 28.1183 139.977 28.5748C139.979 29.2019 139.979 29.829 139.979 30.4585C139.977 31.0925 139.979 31.7266 139.984 32.3629C140.031 39.1922 140.031 39.1922 139.169 42.4224C139.111 42.6461 139.05 42.8697 138.989 43.1003C138.818 43.679 138.63 44.2462 138.423 44.8134C138.349 45.0139 138.279 45.2145 138.203 45.422C136.924 48.8205 135.09 51.9193 132.581 54.6423C132.445 54.7898 132.31 54.9374 132.169 55.0896C130.395 56.9848 128.504 58.7624 126.613 60.5516C126.25 60.8951 125.888 61.2387 125.525 61.5799C124.771 62.2947 124.017 63.0071 123.263 63.7219C122.292 64.6372 121.326 65.5548 120.359 66.4725C119.613 67.178 118.869 67.8835 118.122 68.589C117.763 68.928 117.407 69.2669 117.051 69.6058C116.553 70.0762 116.058 70.5442 115.56 71.0146C115.411 71.1552 115.265 71.2959 115.111 71.4411C114.094 72.3957 114.094 72.3957 113.55 72.3957C113.55 72.5478 113.55 72.7 113.55 72.8568C113.123 73.2464 113.123 73.2464 112.574 73.5485C111.622 73.4655 111.073 72.9651 110.363 72.3957C110.126 72.2066 109.89 72.0198 109.646 71.8262C109.404 71.6325 109.162 71.4411 108.914 71.2428C108.467 70.8947 108.021 70.5488 107.572 70.2053C104.888 68.1302 104.888 68.1302 104.214 67.6092C103.775 67.2679 103.333 66.929 102.892 66.5901C101.672 65.6494 100.461 64.6994 99.261 63.7357C98.163 62.8549 97.0553 61.9926 95.928 61.1465C95.2351 60.6254 94.547 60.0974 93.8614 59.5694C92.3974 58.4396 90.9261 57.3168 89.4401 56.2124C89.2986 56.1063 89.1571 56.0026 89.0107 55.8919C88.4178 55.4539 87.8249 55.0365 87.1978 54.6423C87.1978 54.4901 87.1978 54.3379 87.1978 54.1811C87.0685 54.1281 86.9392 54.0751 86.805 54.0197C86.0388 53.6255 85.3776 53.1229 84.6968 52.611C84.548 52.498 84.3991 52.3874 84.2454 52.2721C82.2837 50.7988 80.3464 49.3001 78.4041 47.8015C76.5742 46.3904 74.7368 44.9886 72.8751 43.6144C71.7674 42.7959 70.6743 41.9636 69.5836 41.1243C69.3396 40.9353 69.3396 40.9353 69.0883 40.7439C68.3417 40.1698 67.5999 39.5934 66.8606 39.0124C66.5019 38.7311 66.5019 38.7311 66.1384 38.4452C65.9334 38.2815 65.7285 38.1178 65.5162 37.9518C64.994 37.5391 64.994 37.5391 64.262 37.35C64.262 37.1978 64.262 37.0457 64.262 36.8889C63.94 36.8128 63.6179 36.7367 63.2861 36.6583C63.4032 36.7713 63.5178 36.8866 63.6374 37.0019C64.162 37.5206 64.6842 38.0394 65.2087 38.5605C65.3893 38.738 65.5723 38.9178 65.7602 39.1023C65.9334 39.2775 66.1091 39.4505 66.2897 39.6303C66.5312 39.8701 66.5312 39.8701 66.7777 40.1122C67.1729 40.5595 67.4316 40.9699 67.678 41.5002C67.839 41.5002 68.0001 41.5002 68.166 41.5002C68.4881 41.8091 68.4881 41.8091 68.876 42.2564C69.6178 43.0795 70.3961 43.8588 71.2086 44.6197C71.3282 44.7304 71.4478 44.8433 71.5698 44.9586C71.9382 45.3045 72.3091 45.6503 72.6799 45.9961C75.5933 48.7122 75.5933 48.7122 76.8596 50.1371C77.2159 50.5336 77.2159 50.5336 77.8039 50.9533C78.3334 51.3521 78.7116 51.721 79.1459 52.2075C79.9559 53.1021 80.8221 53.9298 81.7079 54.7575C82.6912 55.6752 83.633 56.5998 84.5236 57.5981C85.3507 58.465 86.2438 59.2743 87.1344 60.0859C87.4882 60.4133 87.8322 60.7545 88.1738 61.098C88.1738 61.2502 88.1738 61.4024 88.1738 61.5592C88.3348 61.5592 88.4959 61.5592 88.6618 61.5592C88.9887 61.8727 88.9887 61.8727 89.3791 62.3223C90.3136 63.3645 91.3262 64.3144 92.3608 65.2689C92.8878 65.767 93.3758 66.2857 93.8614 66.8183C94.8032 67.8443 95.8109 68.7943 96.8357 69.7442C98.0166 70.8393 99.1537 71.9484 100.235 73.1335C100.742 73.6822 101.286 74.1917 101.838 74.7013C102.538 75.3538 103.216 76.0086 103.851 76.7187C104.675 77.6317 105.571 78.4687 106.474 79.3126C107.511 80.2832 108.513 81.2585 109.458 82.3122C110.224 83.1261 111.056 83.8777 111.881 84.6363C112.405 85.132 112.891 85.6484 113.374 86.1787C114.355 87.2485 115.411 88.2354 116.477 89.2268C117.7 90.3611 118.886 91.507 120.003 92.736C120.508 93.2824 121.05 93.7919 121.601 94.2992C122.477 95.1154 123.297 95.9523 124.095 96.8354C124.586 97.3564 125.103 97.8452 125.627 98.334C126.455 99.1041 127.223 99.8996 127.977 100.734C128.507 101.292 129.068 101.804 129.639 102.325C133.399 105.871 134.231 109.182 134.26 114.047C134.27 114.577 134.27 114.577 134.416 115.027C134.619 115.857 134.487 116.701 134.426 117.542C134.319 119.276 134.27 121.001 134.282 122.737C134.284 122.956 134.284 123.175 134.287 123.401C134.294 124.298 134.301 125.195 134.314 126.092C134.404 134.277 134.404 134.277 131.515 137.17C129.085 139.238 126.611 139.822 123.395 139.882C123.082 139.888 122.77 139.895 122.448 139.905C118.066 140.001 113.679 139.96 109.297 139.921C108.04 139.909 106.781 139.902 105.524 139.898C104.541 139.893 103.558 139.884 102.572 139.875C102.108 139.87 101.645 139.868 101.181 139.868C95.8621 139.854 92.1802 138.558 88.3885 134.968C87.8663 134.47 87.3491 133.968 86.8318 133.465C86.478 133.126 86.1242 132.789 85.768 132.45C83.245 130.036 83.245 130.036 82.4862 129.14C82.1153 128.632 82.1153 128.632 81.5859 128.423C81.5859 128.27 81.5859 128.118 81.5859 127.961C81.4248 127.961 81.2638 127.961 81.0979 127.961C80.7611 127.636 80.7611 127.636 80.3659 127.18C79.1068 125.783 77.7063 124.524 76.3179 123.244C76.1179 123.055 75.9154 122.868 75.708 122.675C75.525 122.504 75.342 122.336 75.1516 122.16C74.7539 121.736 74.7539 121.736 74.7539 121.275C74.5929 121.275 74.4319 121.275 74.2659 121.275C74.2659 121.123 74.2659 120.971 74.2659 120.814C74.1049 120.814 73.9439 120.814 73.7779 120.814C73.4461 120.496 73.4461 120.496 73.0533 120.042C71.9455 118.81 70.7377 117.685 69.5226 116.549C69.1859 116.23 69.1859 116.23 68.8419 115.908C68.2929 115.389 67.7414 114.872 67.19 114.358C66.0457 115.267 64.977 116.207 63.9448 117.231C63.53 117.586 63.5301 117.586 63.0421 117.586C62.9762 117.724 62.9103 117.86 62.8395 118.003C62.5614 118.494 62.293 118.813 61.8806 119.205C61.744 119.334 61.6098 119.463 61.4707 119.597C61.3243 119.733 61.1779 119.869 61.0291 120.009C60.8802 120.152 60.729 120.293 60.5752 120.44C60.2605 120.74 59.9433 121.038 59.6261 121.335C59.1381 121.794 58.655 122.253 58.1694 122.714C57.862 123.004 57.5546 123.295 57.2471 123.583C57.1032 123.721 56.9568 123.86 56.8079 124.003C55.7782 124.964 55.7783 124.964 55.2341 124.964C55.1512 125.162 55.1512 125.162 55.0658 125.368C54.6632 126.022 54.1557 126.336 53.5262 126.809C53.1455 127.205 52.7844 127.613 52.4208 128.024C51.5522 128.99 50.5665 129.804 49.549 130.62C48.7828 131.247 48.0875 131.943 47.3799 132.63C47.1554 132.84 46.9285 133.048 46.6942 133.264C46.5332 133.417 46.3697 133.569 46.2038 133.725C41.3043 138.132 34.4651 140.119 27.7771 139.995C19.9082 139.591 12.9982 136.974 7.52533 131.491C6.96902 130.869 6.45174 130.235 5.94667 129.575C5.84663 129.446 5.74903 129.319 5.64655 129.188C4.00689 127.053 2.83814 124.867 1.79871 122.428C1.66695 122.137 1.53519 121.847 1.401 121.556C0.913001 120.475 0.717804 119.479 0.578726 118.322C0.559206 118.165 0.539686 118.008 0.517727 117.844C0.16881 115.008 0.0541281 112.179 0.056568 109.325C0.056568 108.97 0.0541257 108.613 0.0541257 108.255C0.0516857 107.282 0.0516908 106.309 0.0516908 105.339C0.0516908 104.285 0.049246 103.233 0.0468061 102.182C0.0443661 99.8857 0.0443688 97.5893 0.0419288 95.2929C0.0419288 93.8565 0.0394864 92.4224 0.0394864 90.986C0.0370465 87.0041 0.0346068 83.02 0.0321668 79.0382C0.0321668 78.7846 0.0321668 78.5286 0.0321668 78.2681C0.0321668 78.0122 0.0321668 77.7586 0.0321668 77.4957C0.0321668 76.9792 0.0321668 76.4628 0.0321668 75.9463C0.0321668 75.6881 0.0321668 75.4322 0.0321668 75.1693C0.0321668 71.0192 0.0272922 66.869 0.0224123 62.7166C0.0150924 58.4466 0.0126503 54.1788 0.0126503 49.9088C0.0126503 47.5132 0.0102106 45.12 0.00533067 42.7268C0.0028907 40.6886 0.000448341 38.6504 0.00288832 36.6099C0.00288832 35.5724 0.00288593 34.5348 0.000445958 33.4973C-0.0312737 23.4955 1.61572 15.3474 9.23331 7.94397C12.5029 5.02734 16.585 2.92 20.8159 1.54123C20.9745 1.48589 21.1355 1.43286 21.299 1.37983C25.4787 0.0955941 29.7267 0.116345 34.0698 0.104817C35.0068 0.102511 35.9437 0.0932884 36.8782 0.0886771C38.7204 0.077149 40.5601 0.0679264 42.4023 0.0633152C43.9053 0.0563983 45.4108 0.051787 46.9163 0.0448701C61.1169 -0.0219933 75.32 -0.00815947 89.5206 0.0471757Z" fill="#3D3D3D"/>
</svg>
