<svg width="64" height="64" viewBox="0 0 64 64" fill="none" xmlns="http://www.w3.org/2000/svg">
<path d="M40.9237 0.021566C41.7391 0.0247281 42.5545 0.0268361 43.3698 0.0299981C44.3692 0.0321061 45.3698 0.0363221 46.3692 0.0415921C46.8812 0.0447541 47.3931 0.0468621 47.9051 0.0479161C52.6992 0.0595102 52.6992 0.0595101 54.7672 0.749883C54.8631 0.781503 54.9601 0.813123 55.0594 0.845797C56.9511 1.48663 58.7972 2.49004 60.1624 3.89925C60.2517 3.98251 60.3409 4.06578 60.4324 4.15221C62.8182 6.42358 63.9905 9.4802 63.9883 12.6485C63.9894 12.8541 63.9894 12.8541 63.9894 13.0628C63.9905 13.3494 63.9905 13.6361 63.9905 13.9239C63.9894 14.2137 63.9905 14.5036 63.9928 14.7945C64.014 17.9164 64.014 17.9164 63.6202 19.3931C63.5934 19.4953 63.5656 19.5976 63.5377 19.703C63.4596 19.9675 63.3737 20.2268 63.2789 20.4861C63.2454 20.5778 63.2131 20.6695 63.1785 20.7644C62.594 22.318 61.7552 23.7345 60.6086 24.9793C60.5461 25.0468 60.4848 25.1142 60.4201 25.1838C59.6092 26.0502 58.7447 26.8628 57.8803 27.6807C57.7141 27.8378 57.549 27.9948 57.3828 28.1508C57.0381 28.4776 56.6935 28.8032 56.3488 29.13C55.9049 29.5484 55.4632 29.9679 55.0215 30.3874C54.6802 30.7099 54.34 31.0325 53.9986 31.355C53.8347 31.5099 53.6718 31.6649 53.509 31.8198C53.2814 32.0348 53.055 32.2488 52.8275 32.4638C52.7594 32.5281 52.6925 32.5924 52.6222 32.6588C52.1571 33.0952 52.1571 33.0952 51.9083 33.0952C51.9083 33.1647 51.9083 33.2343 51.9083 33.306C51.7131 33.4841 51.7131 33.4841 51.4622 33.6222C51.0272 33.5842 50.7762 33.3555 50.4516 33.0952C50.3434 33.0087 50.2352 32.9234 50.1237 32.8348C50.0133 32.7463 49.9028 32.6588 49.7891 32.5682C49.5849 32.409 49.3808 32.2509 49.1756 32.0939C47.9486 31.1452 47.9486 31.1452 47.6408 30.907C47.44 30.751 47.2381 30.5961 47.0362 30.4412C46.4785 30.0111 45.9253 29.5769 45.3765 29.1363C44.8745 28.7337 44.3681 28.3395 43.8528 27.9527C43.536 27.7145 43.2215 27.4731 42.9081 27.2317C42.2388 26.7153 41.5662 26.202 40.8869 25.6971C40.8222 25.6486 40.7575 25.6012 40.6906 25.5506C40.4196 25.3503 40.1485 25.1596 39.8618 24.9793C39.8618 24.9098 39.8618 24.8402 39.8618 24.7685C39.8027 24.7443 39.7436 24.72 39.6823 24.6947C39.332 24.5145 39.0297 24.2847 38.7185 24.0507C38.6505 23.9991 38.5825 23.9485 38.5122 23.8958C37.6154 23.2223 36.7298 22.5372 35.8419 21.8521C35.0053 21.207 34.1654 20.5662 33.3144 19.938C32.808 19.5639 32.3082 19.1834 31.8097 18.7997C31.6981 18.7133 31.6981 18.7133 31.5832 18.6258C31.2419 18.3633 30.9028 18.0998 30.5649 17.8342C30.4009 17.7056 30.4009 17.7056 30.2347 17.5749C30.141 17.5001 30.0473 17.4253 29.9503 17.3494C29.7116 17.1607 29.7116 17.1607 29.3769 17.0743C29.3769 17.0047 29.3769 16.9352 29.3769 16.8635C29.2297 16.8287 29.0825 16.7939 28.9308 16.7581C28.9843 16.8097 29.0367 16.8624 29.0914 16.9151C29.3312 17.1523 29.5699 17.3894 29.8097 17.6276C29.8923 17.7088 29.9759 17.791 30.0618 17.8753C30.141 17.9554 30.2213 18.0345 30.3038 18.1167C30.4143 18.2263 30.4143 18.2263 30.5269 18.337C30.7076 18.5415 30.8259 18.7291 30.9385 18.9715C31.0121 18.9715 31.0858 18.9715 31.1616 18.9715C31.3088 19.1127 31.3088 19.1127 31.4862 19.3172C31.8253 19.6935 32.1811 20.0497 32.5525 20.3976C32.6072 20.4482 32.6618 20.4998 32.7176 20.5525C32.886 20.7106 33.0556 20.8687 33.2251 21.0268C34.5569 22.2684 34.5569 22.2684 35.1358 22.9198C35.2987 23.1011 35.2987 23.1011 35.5675 23.2929C35.8095 23.4753 35.9824 23.6439 36.181 23.8663C36.5513 24.2752 36.9473 24.6536 37.3522 25.032C37.8017 25.4515 38.2322 25.8742 38.6394 26.3306C39.0175 26.7269 39.4257 27.0968 39.8328 27.4678C39.9946 27.6175 40.1519 27.7735 40.308 27.9305C40.308 28.0001 40.308 28.0697 40.308 28.1413C40.3816 28.1413 40.4553 28.1413 40.5311 28.1413C40.6806 28.2847 40.6806 28.2847 40.859 28.4902C41.2862 28.9666 41.7491 29.4009 42.2221 29.8372C42.463 30.0649 42.6861 30.302 42.9081 30.5455C43.3386 31.0145 43.7993 31.4488 44.2677 31.883C44.8076 32.3837 45.3274 32.8907 45.8215 33.4324C46.0535 33.6833 46.3023 33.9162 46.5544 34.1492C46.8745 34.4474 47.1846 34.7468 47.4746 35.0714C47.8516 35.4888 48.2609 35.8714 48.6736 36.2572C49.1477 36.7009 49.6061 37.1467 50.0378 37.6284C50.388 38.0005 50.7684 38.3441 51.1454 38.6909C51.3852 38.9175 51.6072 39.1536 51.828 39.396C52.2764 39.885 52.7594 40.3362 53.2468 40.7894C53.8057 41.308 54.3478 41.8318 54.8586 42.3936C55.0895 42.6434 55.3371 42.8763 55.5892 43.1082C55.9897 43.4813 56.3644 43.8639 56.7292 44.2676C56.9534 44.5058 57.1898 44.7292 57.4297 44.9527C57.8078 45.3047 58.1591 45.6684 58.5038 46.0499C58.7458 46.305 59.0024 46.539 59.2634 46.7772C60.9823 48.3982 61.3626 49.9118 61.376 52.1357C61.3805 52.3782 61.3805 52.3782 61.4474 52.5837C61.54 52.9631 61.4797 53.3489 61.4518 53.7336C61.4028 54.5262 61.3805 55.3146 61.386 56.1083C61.3872 56.2084 61.3872 56.3085 61.3883 56.4118C61.3916 56.8218 61.395 57.2318 61.4005 57.6418C61.4418 61.3836 61.4418 61.3836 60.1212 62.7063C59.0102 63.6518 57.8792 63.9184 56.4091 63.9458C56.2663 63.949 56.1235 63.9522 55.9763 63.9564C53.973 64.0007 51.9675 63.9817 49.9642 63.9638C49.3897 63.9585 48.8142 63.9553 48.2397 63.9532C47.7902 63.9511 47.3407 63.9469 46.8901 63.9427C46.6782 63.9406 46.4662 63.9395 46.2543 63.9395C43.8227 63.9332 42.1395 63.3408 40.4062 61.6998C40.1675 61.4721 39.931 61.2423 39.6945 61.0125C39.5328 60.8576 39.3711 60.7037 39.2082 60.5488C38.0549 59.4452 38.0549 59.4452 37.708 59.0352C37.5384 58.8034 37.5384 58.8034 37.2964 58.7074C37.2964 58.6379 37.2964 58.5683 37.2964 58.4966C37.2228 58.4966 37.1492 58.4966 37.0733 58.4966C36.9194 58.348 36.9194 58.348 36.7387 58.1393C36.1631 57.5006 35.5229 56.9251 34.8882 56.3401C34.7967 56.2537 34.7042 56.1683 34.6093 56.0798C34.5257 56.0018 34.442 55.9249 34.355 55.8448C34.1732 55.6508 34.1732 55.6508 34.1732 55.44C34.0996 55.44 34.026 55.44 33.9501 55.44C33.9501 55.3705 33.9501 55.3009 33.9501 55.2292C33.8765 55.2292 33.8029 55.2292 33.7271 55.2292C33.5754 55.0838 33.5754 55.0838 33.3958 54.8761C32.8894 54.3133 32.3372 53.7989 31.7818 53.2793C31.6278 53.1339 31.6278 53.1339 31.4706 52.9863C31.2196 52.7492 30.9675 52.5131 30.7154 52.278C30.1923 52.6933 29.7037 53.1233 29.2319 53.5913C29.0423 53.7536 29.0423 53.7536 28.8192 53.7536C28.7891 53.8169 28.759 53.8791 28.7266 53.9444C28.5995 54.1689 28.4768 54.3144 28.2883 54.4935C28.2258 54.5526 28.1645 54.6116 28.1009 54.6727C28.034 54.7349 27.967 54.7971 27.899 54.8614C27.831 54.9267 27.7618 54.991 27.6915 55.0585C27.5476 55.1955 27.4026 55.3315 27.2576 55.4674C27.0346 55.6772 26.8137 55.8869 26.5917 56.0977C26.4512 56.2305 26.3107 56.3633 26.1701 56.4951C26.1043 56.5583 26.0374 56.6216 25.9693 56.6869C25.4986 57.1264 25.4986 57.1264 25.2499 57.1264C25.212 57.2171 25.212 57.2171 25.1729 57.3109C24.9889 57.6102 24.7569 57.7536 24.4691 57.9696C24.2951 58.1509 24.13 58.3375 23.9638 58.5251C23.5667 58.9667 23.1161 59.3388 22.651 59.7119C22.3007 59.9986 21.9828 60.3169 21.6594 60.631C21.5567 60.7269 21.453 60.8218 21.3459 60.9208C21.2723 60.9904 21.1976 61.06 21.1217 61.1316C18.882 63.1459 15.7555 64.0544 12.6981 63.9975C9.10089 63.813 5.94203 62.6167 3.44015 60.1103C3.18584 59.8257 2.94937 59.5359 2.71848 59.2344C2.67274 59.1754 2.62813 59.1174 2.58128 59.0574C1.83172 58.0814 1.29744 57.0822 0.822269 55.967C0.762036 55.8342 0.701803 55.7014 0.640455 55.5686C0.417372 55.0743 0.328139 54.619 0.26456 54.0898C0.255637 54.0182 0.246714 53.9465 0.236675 53.8717C0.0771705 52.5753 0.0247443 51.282 0.0258597 49.9771C0.0258597 49.8148 0.0247432 49.6514 0.0247432 49.4881C0.0236278 49.0433 0.0236301 48.5985 0.0236301 48.1548C0.0236301 47.6731 0.0225125 47.1925 0.0213971 46.7118C0.0202816 45.662 0.0202829 44.6123 0.0191674 43.5625C0.0191674 42.9058 0.0180509 42.2502 0.0180509 41.5936C0.0169355 39.7733 0.0158202 37.952 0.0147048 36.1317C0.0147048 36.0158 0.0147048 35.8988 0.0147048 35.7797C0.0147048 35.6627 0.0147048 35.5468 0.0147048 35.4266C0.0147048 35.1905 0.0147048 34.9544 0.0147048 34.7183C0.0147048 34.6003 0.0147048 34.4833 0.0147048 34.3631C0.0147048 32.4659 0.0124764 30.5687 0.0102456 28.6704C0.00689936 26.7184 0.00578299 24.7675 0.00578299 22.8155C0.00578299 21.7203 0.00466771 20.6263 0.00243688 19.5322C0.00132146 18.6005 0.000204956 17.6688 0.00132037 16.736C0.00132037 16.2617 0.00131928 15.7874 0.000203867 15.3131C-0.0142965 10.7408 0.738613 7.01594 4.22094 3.63153C5.7156 2.29821 7.58169 1.33485 9.51583 0.704561C9.58833 0.679264 9.66194 0.655022 9.73668 0.63078C11.6474 0.0437002 13.5893 0.0531862 15.5748 0.0479161C16.0031 0.0468621 16.4314 0.0426461 16.8586 0.0405381C17.7008 0.0352681 18.5418 0.0310521 19.3839 0.0289441C20.071 0.0257821 20.7592 0.0236741 21.4474 0.020512C27.9392 -0.0100541 34.432 -0.00373004 40.9237 0.021566Z" fill="#0D6EFD"/>
</svg>
