<svg width="325" height="53" viewBox="0 0 325 53" fill="none" xmlns="http://www.w3.org/2000/svg">
<path d="M31.9717 0.0168485C32.6087 0.0193188 33.2457 0.0209657 33.8827 0.023436C34.6635 0.0250829 35.4451 0.0283766 36.2259 0.0324938C36.6259 0.0349642 37.0259 0.036611 37.4259 0.0374345C41.1712 0.0464923 41.1712 0.0464923 42.7868 0.585846C42.8618 0.610549 42.9376 0.635252 43.0152 0.660779C44.4931 1.16143 45.9353 1.94535 47.0019 3.04629C47.0716 3.11134 47.1413 3.17639 47.2128 3.24391C49.0767 5.01843 49.9926 7.4064 49.9909 9.88167C49.9917 10.0422 49.9917 10.0422 49.9917 10.2053C49.9926 10.4293 49.9926 10.6532 49.9926 10.878C49.9917 11.1045 49.9926 11.3309 49.9944 11.5582C50.0109 13.9972 50.0109 13.9972 49.7033 15.1509C49.6824 15.2307 49.6606 15.3106 49.6388 15.393C49.5778 15.5996 49.5107 15.8022 49.4366 16.0048C49.4105 16.0764 49.3852 16.148 49.3582 16.2222C48.9016 17.4359 48.2463 18.5426 47.3505 19.5151C47.3017 19.5678 47.2537 19.6205 47.2032 19.6748C46.5697 20.3517 45.8943 20.9866 45.219 21.6256C45.0891 21.7483 44.9602 21.871 44.8303 21.9928C44.5611 22.2481 44.2918 22.5025 44.0225 22.7578C43.6757 23.0847 43.3306 23.4124 42.9855 23.7402C42.7189 23.9921 42.4531 24.2441 42.1864 24.4961C42.0583 24.6171 41.9311 24.7382 41.8039 24.8592C41.6261 25.0272 41.4492 25.1944 41.2714 25.3623C41.2183 25.4126 41.166 25.4628 41.1111 25.5147C40.7477 25.8556 40.7477 25.8556 40.5534 25.8556C40.5534 25.9099 40.5534 25.9643 40.5534 26.0203C40.4009 26.1594 40.4009 26.1594 40.2048 26.2673C39.865 26.2377 39.6689 26.059 39.4153 25.8556C39.3308 25.7881 39.2463 25.7214 39.1591 25.6522C39.0729 25.583 38.9866 25.5147 38.8977 25.4439C38.7382 25.3195 38.5788 25.196 38.4184 25.0733C37.4599 24.3322 37.4599 24.3322 37.2193 24.1461C37.0625 24.0243 36.9048 23.9032 36.747 23.7822C36.3113 23.4462 35.8791 23.1069 35.4504 22.7627C35.0582 22.4482 34.6626 22.1402 34.26 21.838C34.0125 21.6519 33.7668 21.4634 33.5219 21.2748C32.9991 20.8713 32.4736 20.4703 31.9429 20.0759C31.8924 20.038 31.8418 20.0009 31.7895 19.9614C31.5778 19.8049 31.366 19.6559 31.1421 19.5151C31.1421 19.4607 31.1421 19.4064 31.1421 19.3504C31.0959 19.3315 31.0497 19.3125 31.0018 19.2928C30.7281 19.152 30.492 18.9724 30.2489 18.7896C30.1957 18.7493 30.1425 18.7098 30.0877 18.6686C29.387 18.1424 28.6951 17.6072 28.0015 17.0719C27.3479 16.568 26.6917 16.0674 26.0268 15.5766C25.6312 15.2843 25.2408 14.987 24.8513 14.6873C24.7642 14.6197 24.7642 14.6197 24.6744 14.5514C24.4077 14.3464 24.1428 14.1405 23.8788 13.933C23.7507 13.8325 23.7507 13.8325 23.6208 13.7304C23.5476 13.672 23.4745 13.6135 23.3986 13.5542C23.2122 13.4068 23.2122 13.4068 22.9507 13.3393C22.9507 13.2849 22.9507 13.2306 22.9507 13.1746C22.8357 13.1474 22.7207 13.1203 22.6022 13.0923C22.644 13.1326 22.6849 13.1738 22.7276 13.215C22.915 13.4002 23.1015 13.5855 23.2888 13.7716C23.3533 13.835 23.4187 13.8992 23.4858 13.9651C23.5476 14.0277 23.6104 14.0894 23.6749 14.1537C23.7611 14.2393 23.7611 14.2393 23.8492 14.3258C23.9903 14.4855 24.0827 14.6321 24.1707 14.8215C24.2282 14.8215 24.2857 14.8215 24.345 14.8215C24.46 14.9318 24.46 14.9318 24.5986 15.0916C24.8635 15.3855 25.1415 15.6639 25.4317 15.9356C25.4744 15.9751 25.5171 16.0155 25.5606 16.0566C25.6922 16.1802 25.8247 16.3037 25.9571 16.4272C26.9976 17.3972 26.9976 17.3972 27.4499 17.9061C27.5771 18.0477 27.5771 18.0477 27.7871 18.1976C27.9762 18.34 28.1113 18.4718 28.2664 18.6455C28.5557 18.965 28.8651 19.2607 29.1814 19.5563C29.5326 19.884 29.8689 20.2142 30.187 20.5707C30.4824 20.8804 30.8013 21.1694 31.1194 21.4592C31.2458 21.5762 31.3686 21.698 31.4906 21.8207C31.4906 21.8751 31.4906 21.9294 31.4906 21.9854C31.5482 21.9854 31.6057 21.9854 31.6649 21.9854C31.7817 22.0974 31.7817 22.0974 31.9211 22.258C32.2549 22.6302 32.6165 22.9694 32.986 23.3103C33.1742 23.4882 33.3485 23.6735 33.5219 23.8637C33.8583 24.2301 34.2182 24.5694 34.5842 24.9086C35.0059 25.2998 35.412 25.6958 35.7981 26.1191C35.9793 26.3151 36.1736 26.497 36.3706 26.679C36.6207 26.9121 36.8629 27.1459 37.0895 27.3995C37.384 27.7256 37.7039 28.0245 38.0263 28.3259C38.3966 28.6726 38.7548 29.0209 39.092 29.3972C39.3657 29.6879 39.6628 29.9563 39.9573 30.2272C40.1447 30.4043 40.3181 30.5887 40.4907 30.7781C40.841 31.1602 41.2183 31.5126 41.5991 31.8667C42.0357 32.2718 42.4592 32.6811 42.8583 33.12C43.0387 33.3151 43.2321 33.4971 43.4291 33.6783C43.7419 33.9698 44.0347 34.2687 44.3197 34.5841C44.4948 34.7702 44.6796 34.9447 44.8669 35.1193C45.1623 35.3943 45.4368 35.6784 45.7061 35.9765C45.8952 36.1758 46.0956 36.3586 46.2995 36.5447C47.6424 37.8111 47.9395 38.9936 47.95 40.731C47.9535 40.9204 47.9535 40.9204 48.0058 41.081C48.0781 41.3774 48.031 41.6788 48.0093 41.9794C47.9709 42.5986 47.9535 43.2145 47.9578 43.8346C47.9587 43.9128 47.9587 43.991 47.9596 44.0717C47.9622 44.3921 47.9648 44.7124 47.9692 45.0327C48.0014 47.9559 48.0014 47.9559 46.9697 48.9893C46.1017 49.7279 45.2181 49.9363 44.0696 49.9577C43.958 49.9602 43.8465 49.9626 43.7315 49.9659C42.1664 50.0005 40.5996 49.9857 39.0345 49.9717C38.5857 49.9676 38.1361 49.9651 37.6873 49.9635C37.3361 49.9618 36.9849 49.9585 36.6329 49.9552C36.4673 49.9536 36.3017 49.9527 36.1362 49.9527C34.2365 49.9478 32.9215 49.485 31.5673 48.2029C31.3808 48.0251 31.1961 47.8456 31.0114 47.666C30.885 47.545 30.7586 47.4248 30.6314 47.3037C29.7304 46.4416 29.7304 46.4416 29.4594 46.1213C29.3269 45.9401 29.3269 45.9401 29.1378 45.8652C29.1378 45.8108 29.1378 45.7565 29.1378 45.7005C29.0803 45.7005 29.0228 45.7005 28.9635 45.7005C28.8433 45.5844 28.8433 45.5844 28.7021 45.4214C28.2524 44.9224 27.7522 44.4728 27.2564 44.0157C27.185 43.9482 27.1126 43.8815 27.0386 43.8124C26.9732 43.7514 26.9078 43.6913 26.8399 43.6287C26.6978 43.4772 26.6978 43.4772 26.6978 43.3125C26.6403 43.3125 26.5828 43.3125 26.5235 43.3125C26.5235 43.2582 26.5235 43.2038 26.5235 43.1478C26.466 43.1478 26.4085 43.1478 26.3493 43.1478C26.2308 43.0342 26.2308 43.0342 26.0905 42.872C25.6948 42.4323 25.2635 42.0304 24.8295 41.6245C24.7093 41.5108 24.7093 41.5108 24.5864 41.3956C24.3903 41.2103 24.1934 41.0258 23.9964 40.8422C23.5877 41.1666 23.2061 41.5026 22.8374 41.8682C22.6893 41.995 22.6893 41.995 22.515 41.995C22.4915 42.0444 22.468 42.093 22.4427 42.1441C22.3433 42.3195 22.2475 42.4331 22.1002 42.5731C22.0514 42.6192 22.0035 42.6653 21.9538 42.7131C21.9015 42.7616 21.8493 42.8102 21.7961 42.8605C21.7429 42.9115 21.6889 42.9617 21.634 43.0144C21.5216 43.1215 21.4083 43.2277 21.295 43.3339C21.1207 43.4978 20.9482 43.6617 20.7748 43.8264C20.665 43.9301 20.5552 44.0339 20.4454 44.1368C20.394 44.1862 20.3417 44.2356 20.2885 44.2867C19.9208 44.63 19.9208 44.63 19.7265 44.63C19.6968 44.7008 19.6968 44.7008 19.6663 44.7741C19.5226 45.008 19.3413 45.12 19.1165 45.2888C18.9805 45.4304 18.8516 45.5762 18.7217 45.7227C18.4115 46.0678 18.0595 46.3584 17.6961 46.6499C17.4224 46.8739 17.1741 47.1226 16.9214 47.368C16.8412 47.4429 16.7602 47.517 16.6765 47.5944C16.619 47.6488 16.5606 47.7031 16.5014 47.7591C14.7515 49.3327 12.309 50.0425 9.9204 49.998C7.11007 49.8539 4.64221 48.9193 2.68762 46.9612C2.48893 46.7389 2.30419 46.5124 2.12381 46.2769C2.08808 46.2308 2.05322 46.1855 2.01662 46.1386C1.43103 45.3761 1.01362 44.5954 0.642397 43.7242C0.595341 43.6205 0.548284 43.5167 0.500356 43.413C0.326072 43.0268 0.256359 42.6711 0.206688 42.2577C0.199716 42.2017 0.192745 42.1457 0.184902 42.0872C0.0602894 41.0744 0.0193314 40.0641 0.0202029 39.0446C0.0202029 38.9178 0.0193306 38.7902 0.0193306 38.6626C0.0184592 38.3151 0.018461 37.9676 0.018461 37.6209C0.018461 37.2446 0.0175879 36.8691 0.0167164 36.4936C0.015845 35.6735 0.015846 34.8533 0.0149746 34.0332C0.0149746 33.5202 0.0141023 33.008 0.0141023 32.495C0.0132309 31.0729 0.0123596 29.65 0.0114881 28.2279C0.0114881 28.1373 0.0114881 28.0459 0.0114881 27.9529C0.0114881 27.8615 0.0114881 27.7709 0.0114881 27.677C0.0114881 27.4926 0.0114881 27.3081 0.0114881 27.1237C0.0114881 27.0315 0.0114881 26.9401 0.0114881 26.8462C0.0114881 25.364 0.00974722 23.8818 0.00800438 22.3988C0.00539013 20.8738 0.00451796 19.3496 0.00451796 17.8246C0.00451796 16.969 0.00364665 16.1143 0.00190381 15.2596C0.00103239 14.5316 0.000160122 13.8037 0.00103154 13.075C0.00103154 12.7044 0.00103069 12.3339 0.000159271 11.9633C-0.0111692 8.39124 0.577041 5.4812 3.29761 2.83713C4.46531 1.79548 5.9232 1.04286 7.43424 0.550438C7.49088 0.530675 7.54839 0.511736 7.60678 0.492797C9.09952 0.0341408 10.6167 0.0415517 12.1678 0.0374345C12.5024 0.036611 12.837 0.0333173 13.1708 0.0316704C13.8287 0.0275532 14.4858 0.0242594 15.1437 0.0226126C15.6805 0.0201422 16.2181 0.0184954 16.7558 0.016025C21.8275 -0.00785474 26.9 -0.0029141 31.9717 0.0168485Z" fill="#0D6EFD"/>
<path d="M60.658 49V2.3515H77.8515C81.1395 2.3515 84.0622 3.01366 86.6195 4.338C89.1768 5.66233 91.1633 7.51183 92.579 9.8865C94.0403 12.2612 94.771 15.0468 94.771 18.2435C94.771 21.4402 94.0403 24.2258 92.579 26.6005C91.1633 28.9752 89.1768 30.8247 86.6195 32.149C84.0622 33.4277 81.1395 34.067 77.8515 34.067H67.782V25.5045H76.961C79.6097 25.5045 81.7103 24.888 83.263 23.655C84.8157 22.3763 85.592 20.5725 85.592 18.2435C85.592 15.8232 84.8157 13.9965 83.263 12.7635C81.7103 11.5305 79.6097 10.914 76.961 10.914H67.7135L69.6315 8.9275V49H60.658ZM85.455 49L75.18 29.8885H85.044L95.2505 49H85.455ZM108.568 29.8885V21.326H127.611V29.8885H108.568ZM108.363 10.8455L111.24 7.4205V43.5885L108.02 40.4375H131.516V49H102.266V2.3515H131.516V10.8455H108.363ZM173.233 52.0825L159.328 28.861H168.507L182.412 52.0825H173.233ZM136.312 25.71C136.312 22.1937 136.906 18.9742 138.093 16.0515C139.28 13.0832 140.947 10.5258 143.093 8.3795C145.24 6.23316 147.774 4.56633 150.697 3.379C153.665 2.19167 156.908 1.598 160.424 1.598C163.895 1.598 167.091 2.19167 170.014 3.379C172.937 4.56633 175.471 6.23316 177.617 8.3795C179.764 10.5258 181.431 13.0832 182.618 16.0515C183.805 18.9742 184.399 22.1937 184.399 25.71C184.399 29.1807 183.805 32.4002 182.618 35.3685C181.431 38.2912 179.764 40.8485 177.617 43.0405C175.471 45.1868 172.937 46.8537 170.014 48.041C167.091 49.2283 163.895 49.822 160.424 49.822C156.908 49.822 153.665 49.2283 150.697 48.041C147.774 46.8537 145.24 45.1868 143.093 43.0405C140.947 40.8485 139.28 38.2912 138.093 35.3685C136.906 32.4002 136.312 29.1807 136.312 25.71ZM145.491 25.71C145.491 28.724 146.13 31.3955 147.409 33.7245C148.688 36.0078 150.446 37.7888 152.683 39.0675C154.967 40.3462 157.547 40.9855 160.424 40.9855C163.301 40.9855 165.835 40.3462 168.027 39.0675C170.265 37.7888 172.023 36.0078 173.302 33.7245C174.581 31.3955 175.22 28.724 175.22 25.71C175.22 22.6503 174.581 19.9788 173.302 17.6955C172.023 15.3665 170.265 13.5627 168.027 12.284C165.835 11.0053 163.301 10.366 160.424 10.366C157.547 10.366 154.967 11.0282 152.683 12.3525C150.446 13.6312 148.688 15.4122 147.409 17.6955C146.13 19.9788 145.491 22.6503 145.491 25.71ZM198.964 49V7.215H208.006V49H198.964ZM184.922 10.914V2.3515H222.46V10.914H184.922ZM227.827 49V2.3515H245.021C248.309 2.3515 251.232 3.01366 253.789 4.338C256.346 5.66233 258.333 7.51183 259.748 9.8865C261.21 12.2612 261.94 15.0468 261.94 18.2435C261.94 21.4402 261.21 24.2258 259.748 26.6005C258.333 28.9752 256.346 30.8247 253.789 32.149C251.232 33.4277 248.309 34.067 245.021 34.067H234.951V25.5045H244.13C246.779 25.5045 248.88 24.888 250.432 23.655C251.985 22.3763 252.761 20.5725 252.761 18.2435C252.761 15.8232 251.985 13.9965 250.432 12.7635C248.88 11.5305 246.779 10.914 244.13 10.914H234.883L236.801 8.9275V49H227.827ZM252.624 49L242.349 29.8885H252.213L262.42 49H252.624ZM274.929 31.2585H297.945V39.6155H274.929V31.2585ZM265.202 49L281.779 2.3515H292.259L308.288 49H299.246L285.752 8.5165H288.355L274.244 49H265.202Z" fill="#0084FF"/>
</svg>
