<svg width="1235" height="407" viewBox="0 0 1235 407" fill="none" xmlns="http://www.w3.org/2000/svg">
<path d="M16.08 383.48C12.32 383.48 9.24 382.62 6.84 380.9C4.48 379.14 3.16 376.76 2.88 373.76H7.2C7.4 375.6 8.26 377.1 9.78 378.26C11.34 379.38 13.42 379.94 16.02 379.94C18.3 379.94 20.08 379.4 21.36 378.32C22.68 377.24 23.34 375.9 23.34 374.3C23.34 373.18 22.98 372.26 22.26 371.54C21.54 370.82 20.62 370.26 19.5 369.86C18.42 369.42 16.94 368.96 15.06 368.48C12.62 367.84 10.64 367.2 9.12 366.56C7.6 365.92 6.3 364.98 5.22 363.74C4.18 362.46 3.66 360.76 3.66 358.64C3.66 357.04 4.14 355.56 5.1 354.2C6.06 352.84 7.42 351.76 9.18 350.96C10.94 350.16 12.94 349.76 15.18 349.76C18.7 349.76 21.54 350.66 23.7 352.46C25.86 354.22 27.02 356.66 27.18 359.78H22.98C22.86 357.86 22.1 356.32 20.7 355.16C19.34 353.96 17.46 353.36 15.06 353.36C12.94 353.36 11.22 353.86 9.9 354.86C8.58 355.86 7.92 357.1 7.92 358.58C7.92 359.86 8.3 360.92 9.06 361.76C9.86 362.56 10.84 363.2 12 363.68C13.16 364.12 14.72 364.62 16.68 365.18C19.04 365.82 20.92 366.44 22.32 367.04C23.72 367.64 24.92 368.52 25.92 369.68C26.92 370.84 27.44 372.38 27.48 374.3C27.48 376.06 27 377.64 26.04 379.04C25.08 380.4 23.74 381.48 22.02 382.28C20.3 383.08 18.32 383.48 16.08 383.48ZM65.0259 364.94C65.0259 366.38 64.9859 367.48 64.9059 368.24H37.7259C37.8459 370.72 38.4459 372.84 39.5259 374.6C40.6059 376.36 42.0259 377.7 43.7859 378.62C45.5459 379.5 47.4659 379.94 49.5459 379.94C52.2659 379.94 54.5459 379.28 56.3859 377.96C58.2659 376.64 59.5059 374.86 60.1059 372.62H64.5459C63.7459 375.82 62.0259 378.44 59.3859 380.48C56.7859 382.48 53.5059 383.48 49.5459 383.48C46.4659 383.48 43.7059 382.8 41.2659 381.44C38.8259 380.04 36.9059 378.08 35.5059 375.56C34.1459 373 33.4659 370.02 33.4659 366.62C33.4659 363.22 34.1459 360.24 35.5059 357.68C36.8659 355.12 38.7659 353.16 41.2059 351.8C43.6459 350.44 46.4259 349.76 49.5459 349.76C52.6659 349.76 55.3859 350.44 57.7059 351.8C60.0659 353.16 61.8659 355 63.1059 357.32C64.3859 359.6 65.0259 362.14 65.0259 364.94ZM60.7659 364.82C60.8059 362.38 60.3059 360.3 59.2659 358.58C58.2659 356.86 56.8859 355.56 55.1259 354.68C53.3659 353.8 51.4459 353.36 49.3659 353.36C46.2459 353.36 43.5859 354.36 41.3859 356.36C39.1859 358.36 37.9659 361.18 37.7259 364.82H60.7659ZM88.0702 349.64C91.9902 349.64 95.1902 350.86 97.6702 353.3C100.15 355.7 101.39 359.2 101.39 363.8V383H97.2502V364.28C97.2502 360.72 96.3502 358 94.5502 356.12C92.7902 354.24 90.3702 353.3 87.2902 353.3C84.1302 353.3 81.6102 354.3 79.7302 356.3C77.8502 358.3 76.9102 361.24 76.9102 365.12V383H72.7102V350.24H76.9102V355.82C77.9502 353.82 79.4502 352.3 81.4102 351.26C83.3702 350.18 85.5902 349.64 88.0702 349.64ZM108.759 366.56C108.759 363.2 109.439 360.26 110.799 357.74C112.159 355.18 114.019 353.22 116.379 351.86C118.779 350.46 121.479 349.76 124.479 349.76C127.359 349.76 129.959 350.46 132.279 351.86C134.599 353.26 136.299 355.08 137.379 357.32V338.6H141.579V383H137.379V375.68C136.379 377.96 134.739 379.84 132.459 381.32C130.179 382.76 127.499 383.48 124.419 383.48C121.419 383.48 118.719 382.78 116.319 381.38C113.959 379.98 112.099 378 110.739 375.44C109.419 372.88 108.759 369.92 108.759 366.56ZM137.379 366.62C137.379 363.98 136.839 361.66 135.759 359.66C134.679 357.66 133.199 356.12 131.319 355.04C129.479 353.96 127.439 353.42 125.199 353.42C122.879 353.42 120.799 353.94 118.959 354.98C117.119 356.02 115.659 357.54 114.579 359.54C113.539 361.5 113.019 363.84 113.019 366.56C113.019 369.24 113.539 371.6 114.579 373.64C115.659 375.64 117.119 377.18 118.959 378.26C120.799 379.3 122.879 379.82 125.199 379.82C127.439 379.82 129.479 379.28 131.319 378.2C133.199 377.12 134.679 375.58 135.759 373.58C136.839 371.58 137.379 369.26 137.379 366.62ZM165.712 366.56C165.712 363.2 166.372 360.26 167.692 357.74C169.052 355.18 170.912 353.22 173.272 351.86C175.672 350.46 178.372 349.76 181.372 349.76C184.492 349.76 187.172 350.48 189.412 351.92C191.692 353.36 193.332 355.2 194.332 357.44V350.24H198.532V383H194.332V375.74C193.292 377.98 191.632 379.84 189.352 381.32C187.112 382.76 184.432 383.48 181.312 383.48C178.352 383.48 175.672 382.78 173.272 381.38C170.912 379.98 169.052 378 167.692 375.44C166.372 372.88 165.712 369.92 165.712 366.56ZM194.332 366.62C194.332 363.98 193.792 361.66 192.712 359.66C191.632 357.66 190.152 356.12 188.272 355.04C186.432 353.96 184.392 353.42 182.152 353.42C179.832 353.42 177.752 353.94 175.912 354.98C174.072 356.02 172.612 357.54 171.532 359.54C170.492 361.5 169.972 363.84 169.972 366.56C169.972 369.24 170.492 371.6 171.532 373.64C172.612 375.64 174.072 377.18 175.912 378.26C177.752 379.3 179.832 379.82 182.152 379.82C184.392 379.82 186.432 379.28 188.272 378.2C190.152 377.12 191.632 375.58 192.712 373.58C193.792 371.58 194.332 369.26 194.332 366.62ZM228.785 356.06C229.705 354.02 231.105 352.44 232.985 351.32C234.905 350.2 237.245 349.64 240.005 349.64V354.02H238.865C235.825 354.02 233.385 354.84 231.545 356.48C229.705 358.12 228.785 360.86 228.785 364.7V383H224.585V350.24H228.785V356.06ZM275.963 364.94C275.963 366.38 275.923 367.48 275.843 368.24H248.663C248.783 370.72 249.383 372.84 250.463 374.6C251.543 376.36 252.963 377.7 254.723 378.62C256.483 379.5 258.403 379.94 260.483 379.94C263.203 379.94 265.483 379.28 267.323 377.96C269.203 376.64 270.443 374.86 271.043 372.62H275.483C274.683 375.82 272.963 378.44 270.323 380.48C267.723 382.48 264.443 383.48 260.483 383.48C257.403 383.48 254.643 382.8 252.203 381.44C249.763 380.04 247.843 378.08 246.443 375.56C245.083 373 244.403 370.02 244.403 366.62C244.403 363.22 245.083 360.24 246.443 357.68C247.803 355.12 249.703 353.16 252.143 351.8C254.583 350.44 257.363 349.76 260.483 349.76C263.603 349.76 266.323 350.44 268.643 351.8C271.003 353.16 272.803 355 274.043 357.32C275.323 359.6 275.963 362.14 275.963 364.94ZM271.703 364.82C271.743 362.38 271.243 360.3 270.203 358.58C269.203 356.86 267.823 355.56 266.063 354.68C264.303 353.8 262.383 353.36 260.303 353.36C257.183 353.36 254.523 354.36 252.323 356.36C250.123 358.36 248.903 361.18 248.663 364.82H271.703ZM281.728 366.56C281.728 363.2 282.408 360.26 283.768 357.74C285.128 355.18 286.988 353.22 289.348 351.86C291.748 350.46 294.448 349.76 297.448 349.76C300.528 349.76 303.208 350.5 305.488 351.98C307.768 353.42 309.388 355.24 310.348 357.44V350.24H314.548V398.48H310.348V375.8C309.388 378 307.748 379.84 305.428 381.32C303.148 382.76 300.448 383.48 297.328 383.48C294.368 383.48 291.688 382.78 289.288 381.38C286.928 379.98 285.068 378 283.708 375.44C282.388 372.88 281.728 369.92 281.728 366.56ZM310.348 366.62C310.348 363.98 309.808 361.66 308.728 359.66C307.648 357.66 306.168 356.12 304.288 355.04C302.448 353.96 300.408 353.42 298.168 353.42C295.848 353.42 293.768 353.94 291.928 354.98C290.088 356.02 288.628 357.54 287.548 359.54C286.508 361.5 285.988 363.84 285.988 366.56C285.988 369.24 286.508 371.6 287.548 373.64C288.628 375.64 290.088 377.18 291.928 378.26C293.768 379.3 295.848 379.82 298.168 379.82C300.408 379.82 302.448 379.28 304.288 378.2C306.168 377.12 307.648 375.58 308.728 373.58C309.808 371.58 310.348 369.26 310.348 366.62ZM352.516 350.24V383H348.316V377.24C347.356 379.28 345.876 380.84 343.876 381.92C341.876 383 339.636 383.54 337.156 383.54C333.236 383.54 330.036 382.34 327.556 379.94C325.076 377.5 323.836 373.98 323.836 369.38V350.24H327.976V368.9C327.976 372.46 328.856 375.18 330.616 377.06C332.416 378.94 334.856 379.88 337.936 379.88C341.096 379.88 343.616 378.88 345.496 376.88C347.376 374.88 348.316 371.94 348.316 368.06V350.24H352.516ZM391.745 364.94C391.745 366.38 391.705 367.48 391.625 368.24H364.445C364.565 370.72 365.165 372.84 366.245 374.6C367.325 376.36 368.745 377.7 370.505 378.62C372.265 379.5 374.185 379.94 376.265 379.94C378.985 379.94 381.265 379.28 383.105 377.96C384.985 376.64 386.225 374.86 386.825 372.62H391.265C390.465 375.82 388.745 378.44 386.105 380.48C383.505 382.48 380.225 383.48 376.265 383.48C373.185 383.48 370.425 382.8 367.985 381.44C365.545 380.04 363.625 378.08 362.225 375.56C360.865 373 360.185 370.02 360.185 366.62C360.185 363.22 360.865 360.24 362.225 357.68C363.585 355.12 365.485 353.16 367.925 351.8C370.365 350.44 373.145 349.76 376.265 349.76C379.385 349.76 382.105 350.44 384.425 351.8C386.785 353.16 388.585 355 389.825 357.32C391.105 359.6 391.745 362.14 391.745 364.94ZM387.485 364.82C387.525 362.38 387.025 360.3 385.985 358.58C384.985 356.86 383.605 355.56 381.845 354.68C380.085 353.8 378.165 353.36 376.085 353.36C372.965 353.36 370.305 354.36 368.105 356.36C365.905 358.36 364.685 361.18 364.445 364.82H387.485ZM410.709 383.48C406.949 383.48 403.869 382.62 401.469 380.9C399.109 379.14 397.789 376.76 397.509 373.76H401.829C402.029 375.6 402.889 377.1 404.409 378.26C405.969 379.38 408.049 379.94 410.649 379.94C412.929 379.94 414.709 379.4 415.989 378.32C417.309 377.24 417.969 375.9 417.969 374.3C417.969 373.18 417.609 372.26 416.889 371.54C416.169 370.82 415.249 370.26 414.129 369.86C413.049 369.42 411.569 368.96 409.689 368.48C407.249 367.84 405.269 367.2 403.749 366.56C402.229 365.92 400.929 364.98 399.849 363.74C398.809 362.46 398.289 360.76 398.289 358.64C398.289 357.04 398.769 355.56 399.729 354.2C400.689 352.84 402.049 351.76 403.809 350.96C405.569 350.16 407.569 349.76 409.809 349.76C413.329 349.76 416.169 350.66 418.329 352.46C420.489 354.22 421.649 356.66 421.809 359.78H417.609C417.489 357.86 416.729 356.32 415.329 355.16C413.969 353.96 412.089 353.36 409.689 353.36C407.569 353.36 405.849 353.86 404.529 354.86C403.209 355.86 402.549 357.1 402.549 358.58C402.549 359.86 402.929 360.92 403.689 361.76C404.489 362.56 405.469 363.2 406.629 363.68C407.789 364.12 409.349 364.62 411.309 365.18C413.669 365.82 415.549 366.44 416.949 367.04C418.349 367.64 419.549 368.52 420.549 369.68C421.549 370.84 422.069 372.38 422.109 374.3C422.109 376.06 421.629 377.64 420.669 379.04C419.709 380.4 418.369 381.48 416.649 382.28C414.929 383.08 412.949 383.48 410.709 383.48ZM435.475 353.78V374.12C435.475 376.12 435.855 377.5 436.615 378.26C437.375 379.02 438.715 379.4 440.635 379.4H444.475V383H439.975C437.015 383 434.815 382.32 433.375 380.96C431.935 379.56 431.215 377.28 431.215 374.12V353.78H426.655V350.24H431.215V342.02H435.475V350.24H444.475V353.78H435.475ZM473.326 353.78V374.12C473.326 376.12 473.706 377.5 474.466 378.26C475.226 379.02 476.566 379.4 478.486 379.4H482.326V383H477.826C474.866 383 472.666 382.32 471.226 380.96C469.786 379.56 469.066 377.28 469.066 374.12V353.78H464.506V350.24H469.066V342.02H473.326V350.24H482.326V353.78H473.326ZM503.593 383.48C500.513 383.48 497.733 382.8 495.253 381.44C492.813 380.04 490.873 378.08 489.433 375.56C488.033 373 487.333 370.02 487.333 366.62C487.333 363.22 488.053 360.26 489.493 357.74C490.933 355.18 492.893 353.22 495.373 351.86C497.853 350.46 500.633 349.76 503.713 349.76C506.793 349.76 509.573 350.46 512.053 351.86C514.573 353.22 516.533 355.18 517.933 357.74C519.373 360.26 520.093 363.22 520.093 366.62C520.093 369.98 519.373 372.94 517.933 375.5C516.493 378.06 514.513 380.04 511.993 381.44C509.473 382.8 506.673 383.48 503.593 383.48ZM503.593 379.82C505.753 379.82 507.753 379.34 509.593 378.38C511.433 377.38 512.913 375.9 514.033 373.94C515.193 371.94 515.773 369.5 515.773 366.62C515.773 363.74 515.213 361.32 514.093 359.36C512.973 357.36 511.493 355.88 509.653 354.92C507.813 353.92 505.813 353.42 503.653 353.42C501.493 353.42 499.493 353.92 497.653 354.92C495.813 355.88 494.333 357.36 493.213 359.36C492.133 361.32 491.593 363.74 491.593 366.62C491.593 369.5 492.133 371.94 493.213 373.94C494.333 375.9 495.793 377.38 497.593 378.38C499.433 379.34 501.433 379.82 503.593 379.82ZM555.494 383.48C551.734 383.48 548.654 382.62 546.254 380.9C543.894 379.14 542.574 376.76 542.294 373.76H546.614C546.814 375.6 547.674 377.1 549.194 378.26C550.754 379.38 552.834 379.94 555.434 379.94C557.714 379.94 559.494 379.4 560.774 378.32C562.094 377.24 562.754 375.9 562.754 374.3C562.754 373.18 562.394 372.26 561.674 371.54C560.954 370.82 560.034 370.26 558.914 369.86C557.834 369.42 556.354 368.96 554.474 368.48C552.034 367.84 550.054 367.2 548.534 366.56C547.014 365.92 545.714 364.98 544.634 363.74C543.594 362.46 543.074 360.76 543.074 358.64C543.074 357.04 543.554 355.56 544.514 354.2C545.474 352.84 546.834 351.76 548.594 350.96C550.354 350.16 552.354 349.76 554.594 349.76C558.114 349.76 560.954 350.66 563.114 352.46C565.274 354.22 566.434 356.66 566.594 359.78H562.394C562.274 357.86 561.514 356.32 560.114 355.16C558.754 353.96 556.874 353.36 554.474 353.36C552.354 353.36 550.634 353.86 549.314 354.86C547.994 355.86 547.334 357.1 547.334 358.58C547.334 359.86 547.714 360.92 548.474 361.76C549.274 362.56 550.254 363.2 551.414 363.68C552.574 364.12 554.134 364.62 556.094 365.18C558.454 365.82 560.334 366.44 561.734 367.04C563.134 367.64 564.334 368.52 565.334 369.68C566.334 370.84 566.854 372.38 566.894 374.3C566.894 376.06 566.414 377.64 565.454 379.04C564.494 380.4 563.154 381.48 561.434 382.28C559.714 383.08 557.734 383.48 555.494 383.48ZM604.44 364.94C604.44 366.38 604.4 367.48 604.32 368.24H577.14C577.26 370.72 577.86 372.84 578.94 374.6C580.02 376.36 581.44 377.7 583.2 378.62C584.96 379.5 586.88 379.94 588.96 379.94C591.68 379.94 593.96 379.28 595.8 377.96C597.68 376.64 598.92 374.86 599.52 372.62H603.96C603.16 375.82 601.44 378.44 598.8 380.48C596.2 382.48 592.92 383.48 588.96 383.48C585.88 383.48 583.12 382.8 580.68 381.44C578.24 380.04 576.32 378.08 574.92 375.56C573.56 373 572.88 370.02 572.88 366.62C572.88 363.22 573.56 360.24 574.92 357.68C576.28 355.12 578.18 353.16 580.62 351.8C583.06 350.44 585.84 349.76 588.96 349.76C592.08 349.76 594.8 350.44 597.12 351.8C599.48 353.16 601.28 355 602.52 357.32C603.8 359.6 604.44 362.14 604.44 364.94ZM600.18 364.82C600.22 362.38 599.72 360.3 598.68 358.58C597.68 356.86 596.3 355.56 594.54 354.68C592.78 353.8 590.86 353.36 588.78 353.36C585.66 353.36 583 354.36 580.8 356.36C578.6 358.36 577.38 361.18 577.14 364.82H600.18ZM641.764 364.94C641.764 366.38 641.724 367.48 641.644 368.24H614.464C614.584 370.72 615.184 372.84 616.264 374.6C617.344 376.36 618.764 377.7 620.524 378.62C622.284 379.5 624.204 379.94 626.284 379.94C629.004 379.94 631.284 379.28 633.124 377.96C635.004 376.64 636.244 374.86 636.844 372.62H641.284C640.484 375.82 638.764 378.44 636.124 380.48C633.524 382.48 630.244 383.48 626.284 383.48C623.204 383.48 620.444 382.8 618.004 381.44C615.564 380.04 613.644 378.08 612.244 375.56C610.884 373 610.204 370.02 610.204 366.62C610.204 363.22 610.884 360.24 612.244 357.68C613.604 355.12 615.504 353.16 617.944 351.8C620.384 350.44 623.164 349.76 626.284 349.76C629.404 349.76 632.124 350.44 634.444 351.8C636.804 353.16 638.604 355 639.844 357.32C641.124 359.6 641.764 362.14 641.764 364.94ZM637.504 364.82C637.544 362.38 637.044 360.3 636.004 358.58C635.004 356.86 633.624 355.56 631.864 354.68C630.104 353.8 628.184 353.36 626.104 353.36C622.984 353.36 620.324 354.36 618.124 356.36C615.924 358.36 614.704 361.18 614.464 364.82H637.504ZM671.373 353.78V374.12C671.373 376.12 671.753 377.5 672.513 378.26C673.273 379.02 674.613 379.4 676.533 379.4H680.373V383H675.873C672.913 383 670.713 382.32 669.273 380.96C667.833 379.56 667.113 377.28 667.113 374.12V353.78H662.553V350.24H667.113V342.02H671.373V350.24H680.373V353.78H671.373ZM702.9 349.64C705.38 349.64 707.6 350.16 709.56 351.2C711.56 352.24 713.12 353.84 714.24 356C715.4 358.12 715.98 360.72 715.98 363.8V383H711.84V364.28C711.84 360.72 710.94 358 709.14 356.12C707.38 354.24 704.96 353.3 701.88 353.3C698.72 353.3 696.2 354.3 694.32 356.3C692.44 358.3 691.5 361.24 691.5 365.12V383H687.3V338.6H691.5V355.82C692.54 353.86 694.06 352.34 696.06 351.26C698.1 350.18 700.38 349.64 702.9 349.64ZM754.909 364.94C754.909 366.38 754.869 367.48 754.789 368.24H727.609C727.729 370.72 728.329 372.84 729.409 374.6C730.489 376.36 731.909 377.7 733.669 378.62C735.429 379.5 737.349 379.94 739.429 379.94C742.149 379.94 744.429 379.28 746.269 377.96C748.149 376.64 749.389 374.86 749.989 372.62H754.429C753.629 375.82 751.909 378.44 749.269 380.48C746.669 382.48 743.389 383.48 739.429 383.48C736.349 383.48 733.589 382.8 731.149 381.44C728.709 380.04 726.789 378.08 725.389 375.56C724.029 373 723.349 370.02 723.349 366.62C723.349 363.22 724.029 360.24 725.389 357.68C726.749 355.12 728.649 353.16 731.089 351.8C733.529 350.44 736.309 349.76 739.429 349.76C742.549 349.76 745.269 350.44 747.589 351.8C749.949 353.16 751.749 355 752.989 357.32C754.269 359.6 754.909 362.14 754.909 364.94ZM750.649 364.82C750.689 362.38 750.189 360.3 749.149 358.58C748.149 356.86 746.769 355.56 745.009 354.68C743.249 353.8 741.329 353.36 739.249 353.36C736.129 353.36 733.469 354.36 731.269 356.36C729.069 358.36 727.849 361.18 727.609 364.82H750.649ZM818.058 349.64C821.898 349.64 825.018 350.86 827.418 353.3C829.858 355.7 831.078 359.2 831.078 363.8V383H826.938V364.28C826.938 360.72 826.078 358 824.358 356.12C822.638 354.24 820.298 353.3 817.338 353.3C814.258 353.3 811.798 354.32 809.958 356.36C808.118 358.4 807.198 361.36 807.198 365.24V383H803.058V364.28C803.058 360.72 802.198 358 800.478 356.12C798.758 354.24 796.398 353.3 793.398 353.3C790.318 353.3 787.858 354.32 786.018 356.36C784.178 358.4 783.258 361.36 783.258 365.24V383H779.058V350.24H783.258V355.88C784.298 353.84 785.778 352.3 787.698 351.26C789.618 350.18 791.758 349.64 794.118 349.64C796.958 349.64 799.438 350.32 801.558 351.68C803.718 353.04 805.278 355.04 806.238 357.68C807.118 355.08 808.618 353.1 810.738 351.74C812.898 350.34 815.338 349.64 818.058 349.64ZM838.485 366.56C838.485 363.2 839.145 360.26 840.465 357.74C841.825 355.18 843.685 353.22 846.045 351.86C848.445 350.46 851.145 349.76 854.145 349.76C857.265 349.76 859.945 350.48 862.185 351.92C864.465 353.36 866.105 355.2 867.105 357.44V350.24H871.305V383H867.105V375.74C866.065 377.98 864.405 379.84 862.125 381.32C859.885 382.76 857.205 383.48 854.085 383.48C851.125 383.48 848.445 382.78 846.045 381.38C843.685 379.98 841.825 378 840.465 375.44C839.145 372.88 838.485 369.92 838.485 366.56ZM867.105 366.62C867.105 363.98 866.565 361.66 865.485 359.66C864.405 357.66 862.925 356.12 861.045 355.04C859.205 353.96 857.165 353.42 854.925 353.42C852.605 353.42 850.525 353.94 848.685 354.98C846.845 356.02 845.385 357.54 844.305 359.54C843.265 361.5 842.745 363.84 842.745 366.56C842.745 369.24 843.265 371.6 844.305 373.64C845.385 375.64 846.845 377.18 848.685 378.26C850.525 379.3 852.605 379.82 854.925 379.82C857.165 379.82 859.205 379.28 861.045 378.2C862.925 377.12 864.405 375.58 865.485 373.58C866.565 371.58 867.105 369.26 867.105 366.62ZM894.634 349.76C897.714 349.76 900.394 350.48 902.674 351.92C904.954 353.36 906.594 355.18 907.594 357.38V350.24H911.794V383.84C911.794 386.84 911.134 389.5 909.814 391.82C908.534 394.14 906.734 395.92 904.414 397.16C902.094 398.44 899.454 399.08 896.494 399.08C892.294 399.08 888.794 398.08 885.994 396.08C883.234 394.08 881.514 391.36 880.834 387.92H884.974C885.694 390.2 887.054 392.02 889.054 393.38C891.094 394.74 893.574 395.42 896.494 395.42C898.614 395.42 900.514 394.96 902.194 394.04C903.874 393.16 905.194 391.84 906.154 390.08C907.114 388.32 907.594 386.24 907.594 383.84V375.74C906.554 377.98 904.894 379.84 902.614 381.32C900.374 382.76 897.714 383.48 894.634 383.48C891.634 383.48 888.934 382.78 886.534 381.38C884.174 379.98 882.314 378 880.954 375.44C879.634 372.88 878.974 369.92 878.974 366.56C878.974 363.2 879.634 360.26 880.954 357.74C882.314 355.18 884.174 353.22 886.534 351.86C888.934 350.46 891.634 349.76 894.634 349.76ZM907.594 366.62C907.594 363.98 907.054 361.66 905.974 359.66C904.894 357.66 903.414 356.12 901.534 355.04C899.694 353.96 897.654 353.42 895.414 353.42C893.094 353.42 891.014 353.94 889.174 354.98C887.334 356.02 885.874 357.54 884.794 359.54C883.754 361.5 883.234 363.84 883.234 366.56C883.234 369.24 883.754 371.6 884.794 373.64C885.874 375.64 887.334 377.18 889.174 378.26C891.014 379.3 893.094 379.82 895.414 379.82C897.654 379.82 899.694 379.28 901.534 378.2C903.414 377.12 904.894 375.58 905.974 373.58C907.054 371.58 907.594 369.26 907.594 366.62ZM923.482 344.06C922.642 344.06 921.922 343.76 921.322 343.16C920.722 342.56 920.422 341.82 920.422 340.94C920.422 340.06 920.722 339.34 921.322 338.78C921.922 338.18 922.642 337.88 923.482 337.88C924.322 337.88 925.042 338.18 925.642 338.78C926.242 339.34 926.542 340.06 926.542 340.94C926.542 341.82 926.242 342.56 925.642 343.16C925.042 343.76 924.322 344.06 923.482 344.06ZM925.582 350.24V383H921.382V350.24H925.582ZM933.173 366.62C933.173 363.22 933.853 360.26 935.213 357.74C936.573 355.18 938.453 353.22 940.853 351.86C943.253 350.46 945.993 349.76 949.073 349.76C953.113 349.76 956.433 350.76 959.033 352.76C961.673 354.76 963.373 357.48 964.133 360.92H959.633C959.073 358.56 957.853 356.72 955.973 355.4C954.133 354.04 951.833 353.36 949.073 353.36C946.873 353.36 944.893 353.86 943.133 354.86C941.373 355.86 939.973 357.36 938.933 359.36C937.933 361.32 937.433 363.74 937.433 366.62C937.433 369.5 937.933 371.94 938.933 373.94C939.973 375.94 941.373 377.44 943.133 378.44C944.893 379.44 946.873 379.94 949.073 379.94C951.833 379.94 954.133 379.28 955.973 377.96C957.853 376.6 959.073 374.72 959.633 372.32H964.133C963.373 375.68 961.673 378.38 959.033 380.42C956.393 382.46 953.073 383.48 949.073 383.48C945.993 383.48 943.253 382.8 940.853 381.44C938.453 380.04 936.573 378.08 935.213 375.56C933.853 373 933.173 370.02 933.173 366.62ZM1003.95 349.64C1006.43 349.64 1008.65 350.16 1010.61 351.2C1012.61 352.24 1014.17 353.84 1015.29 356C1016.45 358.12 1017.03 360.72 1017.03 363.8V383H1012.89V364.28C1012.89 360.72 1011.99 358 1010.19 356.12C1008.43 354.24 1006.01 353.3 1002.93 353.3C999.775 353.3 997.255 354.3 995.375 356.3C993.495 358.3 992.555 361.24 992.555 365.12V383H988.355V338.6H992.555V355.82C993.595 353.86 995.115 352.34 997.115 351.26C999.155 350.18 1001.43 349.64 1003.95 349.64ZM1024.4 366.56C1024.4 363.2 1025.06 360.26 1026.38 357.74C1027.74 355.18 1029.6 353.22 1031.96 351.86C1034.36 350.46 1037.06 349.76 1040.06 349.76C1043.18 349.76 1045.86 350.48 1048.1 351.92C1050.38 353.36 1052.02 355.2 1053.02 357.44V350.24H1057.22V383H1053.02V375.74C1051.98 377.98 1050.32 379.84 1048.04 381.32C1045.8 382.76 1043.12 383.48 1040 383.48C1037.04 383.48 1034.36 382.78 1031.96 381.38C1029.6 379.98 1027.74 378 1026.38 375.44C1025.06 372.88 1024.4 369.92 1024.4 366.56ZM1053.02 366.62C1053.02 363.98 1052.48 361.66 1051.4 359.66C1050.32 357.66 1048.84 356.12 1046.96 355.04C1045.12 353.96 1043.08 353.42 1040.84 353.42C1038.52 353.42 1036.44 353.94 1034.6 354.98C1032.76 356.02 1031.3 357.54 1030.22 359.54C1029.18 361.5 1028.66 363.84 1028.66 366.56C1028.66 369.24 1029.18 371.6 1030.22 373.64C1031.3 375.64 1032.76 377.18 1034.6 378.26C1036.44 379.3 1038.52 379.82 1040.84 379.82C1043.08 379.82 1045.12 379.28 1046.96 378.2C1048.84 377.12 1050.32 375.58 1051.4 373.58C1052.48 371.58 1053.02 369.26 1053.02 366.62ZM1070.95 357.44C1071.99 355.24 1073.63 353.42 1075.87 351.98C1078.15 350.5 1080.85 349.76 1083.97 349.76C1086.93 349.76 1089.59 350.46 1091.95 351.86C1094.35 353.22 1096.21 355.18 1097.53 357.74C1098.89 360.26 1099.57 363.2 1099.57 366.56C1099.57 369.92 1098.89 372.88 1097.53 375.44C1096.21 378 1094.35 379.98 1091.95 381.38C1089.59 382.78 1086.93 383.48 1083.97 383.48C1080.89 383.48 1078.21 382.76 1075.93 381.32C1073.65 379.84 1071.99 378 1070.95 375.8V398.48H1066.81V350.24H1070.95V357.44ZM1095.31 366.56C1095.31 363.84 1094.77 361.5 1093.69 359.54C1092.65 357.54 1091.21 356.02 1089.37 354.98C1087.53 353.94 1085.45 353.42 1083.13 353.42C1080.89 353.42 1078.83 353.96 1076.95 355.04C1075.11 356.12 1073.65 357.66 1072.57 359.66C1071.49 361.66 1070.95 363.98 1070.95 366.62C1070.95 369.26 1071.49 371.58 1072.57 373.58C1073.65 375.58 1075.11 377.12 1076.95 378.2C1078.83 379.28 1080.89 379.82 1083.13 379.82C1085.45 379.82 1087.53 379.3 1089.37 378.26C1091.21 377.18 1092.65 375.64 1093.69 373.64C1094.77 371.6 1095.31 369.24 1095.31 366.56ZM1111.44 357.44C1112.48 355.24 1114.12 353.42 1116.36 351.98C1118.64 350.5 1121.34 349.76 1124.46 349.76C1127.42 349.76 1130.08 350.46 1132.44 351.86C1134.84 353.22 1136.7 355.18 1138.02 357.74C1139.38 360.26 1140.06 363.2 1140.06 366.56C1140.06 369.92 1139.38 372.88 1138.02 375.44C1136.7 378 1134.84 379.98 1132.44 381.38C1130.08 382.78 1127.42 383.48 1124.46 383.48C1121.38 383.48 1118.7 382.76 1116.42 381.32C1114.14 379.84 1112.48 378 1111.44 375.8V398.48H1107.3V350.24H1111.44V357.44ZM1135.8 366.56C1135.8 363.84 1135.26 361.5 1134.18 359.54C1133.14 357.54 1131.7 356.02 1129.86 354.98C1128.02 353.94 1125.94 353.42 1123.62 353.42C1121.38 353.42 1119.32 353.96 1117.44 355.04C1115.6 356.12 1114.14 357.66 1113.06 359.66C1111.98 361.66 1111.44 363.98 1111.44 366.62C1111.44 369.26 1111.98 371.58 1113.06 373.58C1114.14 375.58 1115.6 377.12 1117.44 378.2C1119.32 379.28 1121.38 379.82 1123.62 379.82C1125.94 379.82 1128.02 379.3 1129.86 378.26C1131.7 377.18 1133.14 375.64 1134.18 373.64C1135.26 371.6 1135.8 369.24 1135.8 366.56ZM1177.43 364.94C1177.43 366.38 1177.39 367.48 1177.31 368.24H1150.13C1150.25 370.72 1150.85 372.84 1151.93 374.6C1153.01 376.36 1154.43 377.7 1156.19 378.62C1157.95 379.5 1159.87 379.94 1161.95 379.94C1164.67 379.94 1166.95 379.28 1168.79 377.96C1170.67 376.64 1171.91 374.86 1172.51 372.62H1176.95C1176.15 375.82 1174.43 378.44 1171.79 380.48C1169.19 382.48 1165.91 383.48 1161.95 383.48C1158.87 383.48 1156.11 382.8 1153.67 381.44C1151.23 380.04 1149.31 378.08 1147.91 375.56C1146.55 373 1145.87 370.02 1145.87 366.62C1145.87 363.22 1146.55 360.24 1147.91 357.68C1149.27 355.12 1151.17 353.16 1153.61 351.8C1156.05 350.44 1158.83 349.76 1161.95 349.76C1165.07 349.76 1167.79 350.44 1170.11 351.8C1172.47 353.16 1174.27 355 1175.51 357.32C1176.79 359.6 1177.43 362.14 1177.43 364.94ZM1173.17 364.82C1173.21 362.38 1172.71 360.3 1171.67 358.58C1170.67 356.86 1169.29 355.56 1167.53 354.68C1165.77 353.8 1163.85 353.36 1161.77 353.36C1158.65 353.36 1155.99 354.36 1153.79 356.36C1151.59 358.36 1150.37 361.18 1150.13 364.82H1173.17ZM1200.47 349.64C1204.39 349.64 1207.59 350.86 1210.07 353.3C1212.55 355.7 1213.79 359.2 1213.79 363.8V383H1209.65V364.28C1209.65 360.72 1208.75 358 1206.95 356.12C1205.19 354.24 1202.77 353.3 1199.69 353.3C1196.53 353.3 1194.01 354.3 1192.13 356.3C1190.25 358.3 1189.31 361.24 1189.31 365.12V383H1185.11V350.24H1189.31V355.82C1190.35 353.82 1191.85 352.3 1193.81 351.26C1195.77 350.18 1197.99 349.64 1200.47 349.64ZM1228.72 341.06L1228.18 371.9H1224.64L1224.16 341.06H1228.72ZM1226.62 383.3C1225.74 383.3 1225 383 1224.4 382.4C1223.84 381.8 1223.56 381.06 1223.56 380.18C1223.56 379.3 1223.84 378.58 1224.4 378.02C1225 377.42 1225.74 377.12 1226.62 377.12C1227.46 377.12 1228.16 377.42 1228.72 378.02C1229.32 378.58 1229.62 379.3 1229.62 380.18C1229.62 381.06 1229.32 381.8 1228.72 382.4C1228.16 383 1227.46 383.3 1226.62 383.3Z" fill="#A9B1BD"/>
<path d="M333.74 295L324.5 278.68H320.54V295H312.14V253.12H327.86C331.1 253.12 333.86 253.7 336.14 254.86C338.42 255.98 340.12 257.52 341.24 259.48C342.4 261.4 342.98 263.56 342.98 265.96C342.98 268.72 342.18 271.22 340.58 273.46C338.98 275.66 336.6 277.18 333.44 278.02L343.46 295H333.74ZM320.54 272.38H327.56C329.84 272.38 331.54 271.84 332.66 270.76C333.78 269.64 334.34 268.1 334.34 266.14C334.34 264.22 333.78 262.74 332.66 261.7C331.54 260.62 329.84 260.08 327.56 260.08H320.54V272.38ZM381.478 277.66C381.478 278.86 381.398 279.94 381.238 280.9H356.938C357.138 283.3 357.978 285.18 359.458 286.54C360.938 287.9 362.758 288.58 364.918 288.58C368.038 288.58 370.258 287.24 371.578 284.56H380.638C379.678 287.76 377.838 290.4 375.118 292.48C372.398 294.52 369.058 295.54 365.098 295.54C361.898 295.54 359.018 294.84 356.458 293.44C353.938 292 351.958 289.98 350.518 287.38C349.118 284.78 348.417 281.78 348.417 278.38C348.417 274.94 349.118 271.92 350.518 269.32C351.918 266.72 353.878 264.72 356.398 263.32C358.918 261.92 361.818 261.22 365.098 261.22C368.258 261.22 371.078 261.9 373.558 263.26C376.078 264.62 378.018 266.56 379.378 269.08C380.778 271.56 381.478 274.42 381.478 277.66ZM372.778 275.26C372.738 273.1 371.958 271.38 370.438 270.1C368.918 268.78 367.058 268.12 364.858 268.12C362.778 268.12 361.018 268.76 359.578 270.04C358.178 271.28 357.318 273.02 356.998 275.26H372.778ZM385.449 278.26C385.449 274.9 386.109 271.92 387.429 269.32C388.789 266.72 390.609 264.72 392.889 263.32C395.209 261.92 397.789 261.22 400.629 261.22C403.109 261.22 405.269 261.72 407.109 262.72C408.989 263.72 410.489 264.98 411.609 266.5V261.76H420.069V295H411.609V290.14C410.529 291.7 409.029 293 407.109 294.04C405.229 295.04 403.049 295.54 400.569 295.54C397.769 295.54 395.209 294.82 392.889 293.38C390.609 291.94 388.789 289.92 387.429 287.32C386.109 284.68 385.449 281.66 385.449 278.26ZM411.609 278.38C411.609 276.34 411.209 274.6 410.409 273.16C409.609 271.68 408.529 270.56 407.169 269.8C405.809 269 404.349 268.6 402.789 268.6C401.229 268.6 399.789 268.98 398.469 269.74C397.149 270.5 396.069 271.62 395.229 273.1C394.429 274.54 394.029 276.26 394.029 278.26C394.029 280.26 394.429 282.02 395.229 283.54C396.069 285.02 397.149 286.16 398.469 286.96C399.829 287.76 401.269 288.16 402.789 288.16C404.349 288.16 405.809 287.78 407.169 287.02C408.529 286.22 409.609 285.1 410.409 283.66C411.209 282.18 411.609 280.42 411.609 278.38ZM426.113 278.26C426.113 274.9 426.773 271.92 428.093 269.32C429.453 266.72 431.293 264.72 433.613 263.32C435.933 261.92 438.513 261.22 441.353 261.22C443.513 261.22 445.573 261.7 447.533 262.66C449.493 263.58 451.053 264.82 452.213 266.38V250.6H460.733V295H452.213V290.08C451.173 291.72 449.713 293.04 447.833 294.04C445.953 295.04 443.773 295.54 441.293 295.54C438.493 295.54 435.933 294.82 433.613 293.38C431.293 291.94 429.453 289.92 428.093 287.32C426.773 284.68 426.113 281.66 426.113 278.26ZM452.273 278.38C452.273 276.34 451.873 274.6 451.073 273.16C450.273 271.68 449.193 270.56 447.833 269.8C446.473 269 445.013 268.6 443.453 268.6C441.893 268.6 440.453 268.98 439.133 269.74C437.813 270.5 436.733 271.62 435.893 273.1C435.093 274.54 434.693 276.26 434.693 278.26C434.693 280.26 435.093 282.02 435.893 283.54C436.733 285.02 437.813 286.16 439.133 286.96C440.493 287.76 441.933 288.16 443.453 288.16C445.013 288.16 446.473 287.78 447.833 287.02C449.193 286.22 450.273 285.1 451.073 283.66C451.873 282.18 452.273 280.42 452.273 278.38ZM500.737 261.76L480.157 310.72H471.217L478.417 294.16L465.097 261.76H474.517L483.097 284.98L491.797 261.76H500.737ZM565.642 261.76L555.922 295H546.862L540.802 271.78L534.742 295H525.622L515.842 261.76H524.362L530.242 287.08L536.602 261.76H545.482L551.722 287.02L557.602 261.76H565.642ZM588.907 261.28C591.427 261.28 593.667 261.84 595.627 262.96C597.587 264.04 599.107 265.66 600.187 267.82C601.307 269.94 601.867 272.5 601.867 275.5V295H593.467V276.64C593.467 274 592.807 271.98 591.487 270.58C590.167 269.14 588.367 268.42 586.087 268.42C583.767 268.42 581.927 269.14 580.567 270.58C579.247 271.98 578.587 274 578.587 276.64V295H570.187V250.6H578.587V265.9C579.667 264.46 581.107 263.34 582.907 262.54C584.707 261.7 586.707 261.28 588.907 261.28ZM640.755 277.66C640.755 278.86 640.675 279.94 640.515 280.9H616.215C616.415 283.3 617.255 285.18 618.735 286.54C620.215 287.9 622.035 288.58 624.195 288.58C627.315 288.58 629.535 287.24 630.855 284.56H639.915C638.955 287.76 637.115 290.4 634.395 292.48C631.675 294.52 628.335 295.54 624.375 295.54C621.175 295.54 618.295 294.84 615.735 293.44C613.215 292 611.235 289.98 609.795 287.38C608.395 284.78 607.695 281.78 607.695 278.38C607.695 274.94 608.395 271.92 609.795 269.32C611.195 266.72 613.155 264.72 615.675 263.32C618.195 261.92 621.095 261.22 624.375 261.22C627.535 261.22 630.355 261.9 632.835 263.26C635.355 264.62 637.295 266.56 638.655 269.08C640.055 271.56 640.755 274.42 640.755 277.66ZM632.055 275.26C632.015 273.1 631.235 271.38 629.715 270.1C628.195 268.78 626.335 268.12 624.135 268.12C622.055 268.12 620.295 268.76 618.855 270.04C617.455 271.28 616.595 273.02 616.275 275.26H632.055ZM665.306 261.28C669.266 261.28 672.466 262.54 674.906 265.06C677.346 267.54 678.566 271.02 678.566 275.5V295H670.166V276.64C670.166 274 669.506 271.98 668.186 270.58C666.866 269.14 665.066 268.42 662.786 268.42C660.466 268.42 658.626 269.14 657.266 270.58C655.946 271.98 655.286 274 655.286 276.64V295H646.886V261.76H655.286V265.9C656.406 264.46 657.826 263.34 659.546 262.54C661.306 261.7 663.226 261.28 665.306 261.28ZM732.651 261.76L712.071 310.72H703.131L710.331 294.16L697.011 261.76H706.431L715.011 284.98L723.711 261.76H732.651ZM751.939 295.54C748.739 295.54 745.859 294.84 743.299 293.44C740.739 292 738.719 289.98 737.239 287.38C735.799 284.78 735.079 281.78 735.079 278.38C735.079 274.98 735.819 271.98 737.299 269.38C738.819 266.78 740.879 264.78 743.479 263.38C746.079 261.94 748.979 261.22 752.179 261.22C755.379 261.22 758.279 261.94 760.879 263.38C763.479 264.78 765.519 266.78 766.999 269.38C768.519 271.98 769.279 274.98 769.279 278.38C769.279 281.78 768.499 284.78 766.939 287.38C765.419 289.98 763.339 292 760.699 293.44C758.099 294.84 755.179 295.54 751.939 295.54ZM751.939 288.22C753.459 288.22 754.879 287.86 756.199 287.14C757.559 286.38 758.639 285.26 759.439 283.78C760.239 282.3 760.639 280.5 760.639 278.38C760.639 275.22 759.799 272.8 758.119 271.12C756.479 269.4 754.459 268.54 752.059 268.54C749.659 268.54 747.639 269.4 745.999 271.12C744.399 272.8 743.599 275.22 743.599 278.38C743.599 281.54 744.379 283.98 745.939 285.7C747.539 287.38 749.539 288.22 751.939 288.22ZM806.821 261.76V295H798.361V290.8C797.281 292.24 795.861 293.38 794.101 294.22C792.381 295.02 790.501 295.42 788.461 295.42C785.861 295.42 783.561 294.88 781.561 293.8C779.561 292.68 777.981 291.06 776.821 288.94C775.701 286.78 775.141 284.22 775.141 281.26V261.76H783.541V280.06C783.541 282.7 784.201 284.74 785.521 286.18C786.841 287.58 788.641 288.28 790.921 288.28C793.241 288.28 795.061 287.58 796.381 286.18C797.701 284.74 798.361 282.7 798.361 280.06V261.76H806.821ZM827.246 278.26C827.246 274.9 827.906 271.92 829.226 269.32C830.586 266.72 832.406 264.72 834.686 263.32C837.006 261.92 839.586 261.22 842.426 261.22C844.906 261.22 847.066 261.72 848.906 262.72C850.786 263.72 852.286 264.98 853.406 266.5V261.76H861.866V295H853.406V290.14C852.326 291.7 850.826 293 848.906 294.04C847.026 295.04 844.846 295.54 842.366 295.54C839.566 295.54 837.006 294.82 834.686 293.38C832.406 291.94 830.586 289.92 829.226 287.32C827.906 284.68 827.246 281.66 827.246 278.26ZM853.406 278.38C853.406 276.34 853.006 274.6 852.206 273.16C851.406 271.68 850.326 270.56 848.966 269.8C847.606 269 846.146 268.6 844.586 268.6C843.026 268.6 841.586 268.98 840.266 269.74C838.946 270.5 837.866 271.62 837.026 273.1C836.226 274.54 835.826 276.26 835.826 278.26C835.826 280.26 836.226 282.02 837.026 283.54C837.866 285.02 838.946 286.16 840.266 286.96C841.626 287.76 843.066 288.16 844.586 288.16C846.146 288.16 847.606 287.78 848.966 287.02C850.326 286.22 851.406 285.1 852.206 283.66C853.006 282.18 853.406 280.42 853.406 278.38ZM878.47 266.92C879.55 265.16 880.95 263.78 882.67 262.78C884.43 261.78 886.43 261.28 888.67 261.28V270.1H886.45C883.81 270.1 881.81 270.72 880.45 271.96C879.13 273.2 878.47 275.36 878.47 278.44V295H870.07V261.76H878.47V266.92ZM925.228 277.66C925.228 278.86 925.148 279.94 924.988 280.9H900.688C900.888 283.3 901.728 285.18 903.208 286.54C904.688 287.9 906.508 288.58 908.668 288.58C911.788 288.58 914.008 287.24 915.328 284.56H924.388C923.428 287.76 921.588 290.4 918.868 292.48C916.148 294.52 912.808 295.54 908.848 295.54C905.648 295.54 902.768 294.84 900.208 293.44C897.688 292 895.708 289.98 894.268 287.38C892.868 284.78 892.167 281.78 892.167 278.38C892.167 274.94 892.868 271.92 894.268 269.32C895.668 266.72 897.628 264.72 900.148 263.32C902.668 261.92 905.568 261.22 908.848 261.22C912.008 261.22 914.828 261.9 917.308 263.26C919.828 264.62 921.768 266.56 923.128 269.08C924.528 271.56 925.228 274.42 925.228 277.66ZM916.528 275.26C916.488 273.1 915.708 271.38 914.188 270.1C912.668 268.78 910.808 268.12 908.608 268.12C906.528 268.12 904.768 268.76 903.328 270.04C901.928 271.28 901.068 273.02 900.748 275.26H916.528Z" fill="#A9B1BD"/>
<path d="M564.62 31.8339C565.634 31.8272 566.649 31.8205 567.693 31.8135C571.029 31.7946 574.364 31.7906 577.7 31.7885C580.034 31.7821 582.367 31.7753 584.701 31.7683C589.589 31.7564 594.477 31.7526 599.365 31.7538C605.601 31.754 611.837 31.7267 618.073 31.6923C622.893 31.6699 627.714 31.666 632.535 31.667C634.832 31.6647 637.13 31.6559 639.427 31.6404C654.153 31.55 666.86 31.8372 679.817 39.6361C680.94 40.3032 682.063 40.9703 683.221 41.6576C684.397 42.3754 685.574 43.0935 686.75 43.8119C688.004 44.5637 689.259 45.3144 690.514 46.0639C693.766 48.0103 697.007 49.9737 700.244 51.9432C702.792 53.4919 705.345 55.0334 707.897 56.5751C713.145 59.7456 718.385 62.9289 723.617 66.1244C724.696 66.7673 725.774 67.4103 726.885 68.0727C729.187 69.5024 731.329 70.9337 733.504 72.5277C743.689 79.7238 753.518 80.8209 765.775 81.6534C771.251 82.0286 776.714 82.5352 782.18 83.0229C783.241 83.1142 784.303 83.2056 785.396 83.2997C797.204 84.3369 808.668 86.3224 820.188 89.1244C821.301 89.3901 822.415 89.6558 823.562 89.9296C827.07 90.7797 830.568 91.6618 834.063 92.5619C835.104 92.826 836.144 93.0901 837.217 93.3622C851.959 97.3614 861.977 103.356 869.926 116.402C872.773 122.546 873.503 128.606 873.524 135.281C873.53 136.027 873.537 136.774 873.544 137.543C873.554 139.109 873.559 140.676 873.558 142.242C873.563 144.619 873.599 146.994 873.637 149.371C873.705 158.262 873.75 165.428 867.188 172.183C866.528 172.638 865.868 173.093 865.188 173.562C864.528 174.035 863.868 174.508 863.188 174.996C858.901 177.415 854.796 177.236 849.938 177.23C848.511 177.243 847.084 177.258 845.657 177.275C843.418 177.298 841.181 177.312 838.942 177.299C836.773 177.291 834.607 177.32 832.438 177.355C831.144 177.359 829.849 177.363 828.516 177.367C824.934 177.82 824.934 177.82 822.833 181.051C822.019 182.572 822.019 182.572 821.188 184.124C815.137 191.605 806.648 196.39 797.188 198.124C784.693 199.152 773.09 197.458 763.262 189.217C761.188 187.124 761.188 187.124 759.963 184.824C758.346 181.818 756.955 180.158 754.188 178.124C747.734 176.315 740.661 176.905 734.027 176.976C731.947 176.965 729.868 176.951 727.788 176.933C722.147 176.896 716.507 176.916 710.867 176.948C704.962 176.975 699.058 176.957 693.154 176.945C683.24 176.934 673.327 176.959 663.413 177.006C651.951 177.06 640.491 177.053 629.029 177.013C618.002 176.977 606.975 176.986 595.947 177.015C591.255 177.026 586.562 177.021 581.87 177.003C576.344 176.984 570.821 177.004 565.296 177.055C563.268 177.067 561.24 177.066 559.212 177.05C556.443 177.03 553.679 177.06 550.911 177.102C550.108 177.085 549.305 177.067 548.478 177.05C544.936 177.152 542.973 177.351 540.387 179.897C538.868 181.917 537.523 183.981 536.188 186.124C529.539 193.401 520.783 197.641 510.938 198.363C498.773 198.603 488.327 196.672 479.188 188.124C472.837 181.956 472.837 181.956 471.45 178.043C469.807 173.34 469.807 173.34 466.41 169.866C464.208 168.942 462.031 168.252 459.731 167.613C458.91 167.351 458.088 167.09 457.242 166.82C454.629 165.992 452.005 165.212 449.375 164.437C446.759 163.645 444.147 162.843 441.54 162.022C439.923 161.514 438.301 161.024 436.672 160.555C429.623 158.379 424.061 154.412 420.313 147.937C419.924 147.283 419.534 146.63 419.133 145.956C417.333 142.467 417.05 139.632 417.011 135.77C416.998 134.675 416.985 133.58 416.972 132.452C416.965 131.267 416.957 130.083 416.95 128.863C416.941 127.643 416.933 126.423 416.925 125.166C416.911 122.582 416.901 119.997 416.893 117.412C416.875 113.47 416.832 109.529 416.787 105.587C416.777 103.075 416.769 100.563 416.762 98.0502C416.745 96.876 416.727 95.7017 416.709 94.4919C416.727 87.5606 417.38 82.9827 421.188 77.1244C422.245 76.2578 423.329 75.4235 424.438 74.6244C427.352 72.5197 427.352 72.5197 427.43 70.183C427.372 69.1331 427.372 69.1331 427.313 68.0619C427.188 64.1244 427.188 64.1244 428.75 61.6244C433.758 58.5429 439.675 60.2767 445.118 61.5424C446.421 61.8305 447.724 62.1175 449.028 62.4037C451.046 62.8544 453.063 63.3119 455.076 63.7873C457.044 64.2481 459.017 64.6784 460.993 65.1049C462.158 65.372 463.323 65.639 464.523 65.9142C469.343 66.1907 472.765 64.9161 477.188 63.1244C478.355 62.6586 478.355 62.6586 479.546 62.1834C482.064 61.1557 484.566 60.0958 487.067 59.0268C487.989 58.6359 488.911 58.2449 489.861 57.8422C491.819 57.012 493.776 56.1802 495.732 55.347C498.774 54.0519 501.818 52.7614 504.862 51.4723C512.079 48.4161 519.294 45.3551 526.506 42.2885C529.835 40.8735 533.167 39.4671 536.5 38.0619C537.403 37.6758 538.305 37.2896 539.235 36.8918C540.061 36.5444 540.887 36.1971 541.739 35.8393C542.416 35.5517 543.093 35.2642 543.791 34.9679C550.864 32.479 557.175 31.8267 564.62 31.8339ZM544.188 45.1244C543.361 45.4452 542.535 45.7659 541.684 46.0964C539.349 47.0275 537.05 48.0164 534.75 49.0307C533.914 49.3925 533.078 49.7544 532.217 50.1273C530.447 50.894 528.678 51.6636 526.91 52.436C524.142 53.6443 521.37 54.8426 518.597 56.038C514.876 57.6413 511.157 59.2463 507.439 60.8539C506.554 61.2364 505.669 61.6189 504.758 62.013C503.106 62.7275 501.453 63.4424 499.801 64.1577C495.671 65.9452 491.536 67.7203 487.391 69.4723C485.613 70.2281 483.842 70.9993 482.071 71.7709C472.157 75.9436 465.372 75.4139 455 73.1244C453.258 72.7449 451.514 72.3697 449.77 71.9994C449.009 71.8318 448.248 71.6643 447.464 71.4916C445.004 71.0948 442.675 71.063 440.188 71.1244C440.188 73.1044 440.188 75.0844 440.188 77.1244C439.501 77.439 438.814 77.7535 438.106 78.0775C437.205 78.5055 436.304 78.9335 435.375 79.3744C434.482 79.7921 433.589 80.2097 432.668 80.64C430.053 82.2052 428.75 83.5288 427.188 86.1244C427.188 86.7844 427.188 87.4444 427.188 88.1244C427.814 88.234 428.441 88.3436 429.086 88.4565C430.312 88.6943 430.312 88.6943 431.563 88.9369C432.375 89.0877 433.187 89.2386 434.024 89.394C436.188 90.1244 436.188 90.1244 438.188 93.1244C438.431 95.2533 438.431 95.2533 438.418 97.6869C438.416 98.5661 438.414 99.4452 438.412 100.351C438.4 101.266 438.388 102.181 438.375 103.124C438.375 104.04 438.374 104.955 438.373 105.898C438.328 112.702 438.328 112.702 437.188 116.124C431.743 117.114 431.743 117.114 426.188 118.124C426.188 122.744 426.188 127.364 426.188 132.124C436.849 135.113 447.505 138.082 458.313 140.499C459.051 140.667 459.79 140.834 460.551 141.006C463.877 141.731 466.762 142.124 470.188 142.124C471.907 139.916 471.907 139.916 473.375 137.062C478.721 128.213 486.162 122.764 496.188 120.124C509.547 117.862 520.872 119.932 532.157 127.433C540.492 133.886 544.017 143.108 546.188 153.124C550.576 154.21 554.852 154.262 559.344 154.245C560.569 154.246 560.569 154.246 561.819 154.247C564.554 154.249 567.288 154.243 570.023 154.238C571.984 154.238 573.946 154.238 575.907 154.238C581.231 154.239 586.555 154.233 591.879 154.226C597.443 154.22 603.007 154.219 608.571 154.218C619.107 154.215 629.643 154.206 640.179 154.196C652.174 154.185 664.169 154.18 676.164 154.175C700.839 154.164 725.513 154.147 750.188 154.124C750.44 153.245 750.691 152.366 750.951 151.461C751.293 150.301 751.636 149.14 751.989 147.945C752.323 146.798 752.657 145.651 753.002 144.469C754.425 140.456 756.389 137.322 758.918 133.929C760.375 132.042 760.375 132.042 761.188 129.124C762.871 128.128 762.871 128.128 765.188 127.124C766.148 126.638 767.109 126.152 768.098 125.652C769.138 125.127 770.178 124.602 771.25 124.062C772.293 123.535 773.336 123.007 774.41 122.464C783.211 118.219 796.216 118.636 805.375 121.749C815.424 126.198 822.281 133.071 826.438 143.249C827.781 146.843 828.984 150.482 830.188 154.124C841.56 154.277 852.838 153.809 864.188 153.124C864.246 149.437 864.282 145.75 864.313 142.062C864.33 141.024 864.346 139.985 864.364 138.915C864.4 133.237 864.118 128.481 862.188 123.124C861.053 123.087 859.919 123.05 858.75 123.011C839.097 122.218 839.097 122.218 831.188 114.124C828.908 109.802 827.922 105.916 827.188 101.124C803.472 93.5158 777.378 89.7755 752.5 89.6784C742.172 89.4314 733.833 83.9714 725.293 78.6416C722.259 76.7486 719.208 74.8823 716.16 73.0111C715.201 72.4209 715.201 72.4209 714.223 71.8187C707.224 67.5165 700.167 63.3119 693.101 59.1208C691.046 57.9014 688.992 56.6799 686.937 55.4582C684.442 53.9759 681.944 52.5005 679.44 51.0326C677.494 49.8906 675.552 48.7409 673.619 47.5756C665.121 42.586 656.887 40.6701 647.079 40.7204C645.645 40.7101 645.645 40.7101 644.182 40.6996C641.053 40.6814 637.923 40.6851 634.793 40.6908C632.597 40.6863 630.4 40.681 628.204 40.6749C623.61 40.666 619.017 40.6684 614.423 40.6784C608.566 40.6899 602.71 40.6697 596.853 40.6405C592.318 40.622 587.784 40.6224 583.25 40.6281C581.092 40.6283 578.934 40.6223 576.776 40.6098C565.209 40.5524 555.007 40.6222 544.188 45.1244ZM426.188 97.1244C426.188 101.084 426.188 105.044 426.188 109.124C427.508 109.124 428.828 109.124 430.188 109.124C430.188 105.164 430.188 101.204 430.188 97.1244C428.868 97.1244 427.548 97.1244 426.188 97.1244ZM836.188 104.124C837.659 108.17 839.133 110.455 842.875 112.499C847.122 114.406 850.585 114.453 855.188 114.124C852.281 109.958 849.842 108.153 845.125 106.312C844.082 105.893 843.04 105.474 841.965 105.042C839.201 103.968 839.201 103.968 836.188 104.124ZM766.563 137.687C760.828 144.553 758.425 152.53 758.805 161.429C760.016 169.957 764.337 178.242 771.106 183.66C778.616 188.642 786.283 190.06 795.188 189.124C804.084 187.188 811.553 182.682 816.598 174.968C820.9 166.703 821.65 157.314 819.504 148.23C815.85 138.36 810.464 133.801 801.09 129.288C788.48 124.231 775.755 128.164 766.563 137.687ZM483.328 137.05C477.943 143.915 474.808 151.325 475.188 160.124C476.927 169.604 480.525 177.667 488.207 183.714C496.129 188.94 503.818 190.014 513.188 189.124C522.41 186.777 529.356 180.193 534.18 172.214C537.785 164.738 538.593 156.645 536.535 148.562C533.081 140.022 526.585 132.958 518.188 129.124C505.721 125.136 492.671 127.374 483.328 137.05ZM429.188 142.124C431.119 147.333 431.119 147.333 435.188 150.124C437.579 151.036 439.921 151.851 442.36 152.605C443.042 152.823 443.725 153.04 444.428 153.265C446.595 153.954 448.766 154.633 450.938 155.312C452.413 155.779 453.889 156.247 455.364 156.716C458.969 157.86 462.578 158.995 466.188 160.124C466.518 157.154 466.848 154.184 467.188 151.124C454.648 148.154 442.108 145.184 429.188 142.124ZM546.188 162.124C546.188 164.104 546.188 166.084 546.188 168.124C613.838 168.124 681.488 168.124 751.188 168.124C750.858 166.474 750.528 164.824 750.188 163.124C682.868 162.794 615.548 162.464 546.188 162.124ZM830.188 163.124C829.858 164.774 829.528 166.424 829.188 168.124C833.417 168.212 837.646 168.265 841.875 168.312C843.673 168.35 843.673 168.35 845.506 168.388C847.242 168.403 847.242 168.403 849.012 168.417C850.607 168.441 850.607 168.441 852.233 168.465C855.639 168.072 857.453 167.163 860.188 165.124C860.848 164.134 861.508 163.144 862.188 162.124C851.459 162.015 840.883 162.162 830.188 163.124Z" fill="#A9B1BD"/>
<path d="M565.55 48.7045C566.545 48.696 567.539 48.6875 568.564 48.6788C571.829 48.6556 575.094 48.6544 578.359 48.6557C580.647 48.6485 582.935 48.6408 585.222 48.6326C590.01 48.6192 594.798 48.6176 599.586 48.6234C605.693 48.6293 611.799 48.5988 617.906 48.5583C622.63 48.5323 627.354 48.5296 632.078 48.5332C634.328 48.5315 636.578 48.522 638.828 48.5041C661.396 48.3443 661.396 48.3443 672.188 54.1244C672.87 54.4708 673.552 54.8171 674.255 55.174C675.916 56.0657 677.523 57.0552 679.125 58.0502C679.697 58.4015 680.27 58.7528 680.859 59.1147C682.642 60.2121 684.415 61.3239 686.188 62.4369C687.367 63.1664 688.546 63.8949 689.727 64.6225C692.058 66.0614 694.384 67.509 696.707 68.9628C699.086 70.4483 701.48 71.9054 703.887 73.3446C704.483 73.7034 705.079 74.0622 705.693 74.4318C707.34 75.4211 708.99 76.4042 710.641 77.3869C713.188 79.1244 713.188 79.1244 715.188 82.1244C715.819 87.7146 715.819 87.7146 715.188 90.1244C712.578 93.3487 711.087 94.9509 706.956 95.748C705.11 95.747 705.11 95.747 703.227 95.7459C702.538 95.7523 701.849 95.7586 701.14 95.7652C698.838 95.7805 696.538 95.76 694.237 95.7396C692.584 95.7431 690.931 95.7488 689.278 95.7565C684.79 95.7707 680.302 95.7536 675.814 95.7302C671.106 95.71 666.399 95.7159 661.692 95.7183C653.777 95.7182 645.862 95.6985 637.948 95.6664C628.825 95.6296 619.704 95.6207 610.582 95.6277C601.785 95.634 592.989 95.6232 584.192 95.6037C580.461 95.5956 576.729 95.5928 572.998 95.5944C568.588 95.5953 564.178 95.5809 559.768 95.5552C558.16 95.5481 556.551 95.5459 554.943 95.5493C529.725 95.5924 529.725 95.5924 521.574 88.726C520.312 87.4284 519.078 86.1024 517.875 84.7494C517.231 84.0894 516.587 83.4294 515.924 82.7494C513.447 80.1234 511.499 77.8577 510.082 74.5228C510.235 71.0331 511.319 69.0773 513.188 66.1244C515.646 64.6627 517.757 63.6108 520.383 62.5814C521.09 62.2863 521.797 61.9912 522.525 61.6871C524.78 60.7513 527.046 59.8443 529.312 58.9369C530.813 58.3169 532.313 57.6952 533.812 57.0717C537.921 55.3769 542.034 53.7078 546.188 52.1244C547.175 51.7329 547.175 51.7329 548.183 51.3335C554.069 49.1588 559.308 48.6846 565.55 48.7045ZM562.188 58.1244C555.409 71.7941 555.409 71.7941 552.188 86.1244C574.298 86.1244 596.408 86.1244 619.188 86.1244C619.188 76.8844 619.188 67.6444 619.188 58.1244C600.378 58.1244 581.567 58.1244 562.188 58.1244ZM628.188 58.1244C628.188 67.3644 628.188 76.6044 628.188 86.1244C653.268 86.1244 678.348 86.1244 704.188 86.1244C700.455 83.1384 697.011 80.6824 692.961 78.226C692.373 77.8685 691.784 77.5111 691.178 77.1428C689.937 76.3899 688.695 75.6386 687.452 74.8891C685.586 73.7637 683.724 72.632 681.863 71.4994C666.812 61.5884 666.812 61.5884 649.672 58.0268C647.981 58.0305 647.981 58.0305 646.257 58.0343C644.831 58.0434 643.406 58.0525 641.938 58.0619C637.4 58.0825 632.863 58.1032 628.188 58.1244ZM536.188 66.4994C534.366 67.2612 534.366 67.2612 532.508 68.0385C530.771 68.7732 530.771 68.7732 529 69.5228C527.934 69.9732 526.868 70.4236 525.77 70.8876C523.1 71.9907 523.1 71.9907 521.188 74.1244C526.443 80.0369 530.156 84.1715 538.188 85.1244C539.507 85.1244 540.827 85.1244 542.188 85.1244C543.693 81.5017 545.191 77.8759 546.688 74.2494C547.117 73.2169 547.546 72.1843 547.988 71.1205C548.597 69.6413 548.597 69.6413 549.219 68.1322C549.596 67.221 549.973 66.3098 550.361 65.371C551.303 63.2105 551.303 63.2105 551.188 61.1244C546.147 61.1244 540.763 64.5566 536.188 66.4994Z" fill="#A9B1BD"/>
<path d="M805.5 140.312C810.577 145.625 813.313 151.713 813.188 159.124C812.358 166.614 809.811 171.615 804.313 176.874C798.006 181.415 791.78 181.958 784.188 181.124C777.463 179.37 772.962 175.921 769.188 170.124C766.01 163.914 766.021 155.89 768.063 149.3C770.619 143.676 773.604 139.868 779.188 137.124C788.685 133.563 797.15 134.798 805.5 140.312ZM778.25 149.812C776.008 154.692 775.587 159.356 777.313 164.437C779.74 167.916 782.395 170.228 786.188 172.124C792.288 172.723 795.327 171.583 800.188 168.124C803.439 164.454 803.653 160.997 803.473 156.269C802.908 152.023 800.883 149.82 797.938 146.874C790.6 142.205 784.363 144.488 778.25 149.812Z" fill="#A9B1BD"/>
<path d="M521.937 139.687C526.913 145.078 529.486 150.827 529.75 158.187C529.385 165.658 527.378 171.44 521.812 176.562C515.431 181.421 508.991 181.802 501.187 181.124C494.987 180.033 491.624 176.991 487.632 172.257C483.19 165.702 483.51 158.792 484.187 151.124C485.665 145.185 489.135 141.702 494.109 138.312C503.389 133.009 513.038 134.631 521.937 139.687ZM498.187 147.124C494.268 151.353 492.814 154.124 492.91 159.96C493.406 163.833 494.844 165.98 497.187 169.124C501.504 172.099 504.998 172.773 510.187 172.124C514.001 170.071 517.187 168.019 519.187 164.124C520.29 159.653 520.554 156.206 519.062 151.812C516.142 147.627 513.771 145.564 508.812 144.187C504.426 144.111 501.995 144.969 498.187 147.124Z" fill="#A9B1BD"/>
<path d="M522.044 0.00137234C523.271 0.00275503 523.271 0.00275503 524.522 0.00416565C525.925 0.00210366 525.925 0.00210366 527.356 0C528.39 0.00359528 529.425 0.00719055 530.49 0.0108948C531.573 0.0107487 532.656 0.0106027 533.772 0.0104523C537.37 0.0111519 540.968 0.0189468 544.566 0.0267639C547.054 0.0286279 549.541 0.0300519 552.028 0.0310516C557.918 0.0344867 563.807 0.0423774 569.697 0.0524011C577.058 0.0646577 584.419 0.0700423 591.779 0.075592C604.915 0.086332 618.051 0.103219 631.188 0.12442C631.812 3.49942 631.812 3.49942 632.188 7.12442C629.753 9.55862 629.156 9.37524 625.822 9.37839C624.905 9.38403 623.988 9.38967 623.044 9.39548C622.035 9.39143 621.026 9.38738 619.986 9.38321C618.396 9.38847 618.396 9.38847 616.774 9.39383C613.255 9.40266 609.737 9.39679 606.219 9.39005C603.783 9.39139 601.346 9.39333 598.91 9.39584C593.799 9.3988 588.688 9.39449 583.577 9.38516C577.012 9.37377 570.448 9.38033 563.884 9.39231C558.851 9.39952 553.819 9.39724 548.787 9.39205C546.366 9.39071 543.945 9.39237 541.524 9.39701C538.146 9.40207 534.767 9.39438 531.389 9.38321C529.875 9.38928 529.875 9.38928 528.331 9.39548C527.414 9.38984 526.497 9.3842 525.553 9.37839C524.354 9.37726 524.354 9.37726 523.13 9.3761C521.188 9.12442 521.188 9.12442 519.188 7.12442C519 4.06192 519 4.06192 519.188 1.12442C520.188 0.12442 520.188 0.12442 522.044 0.00137234Z" fill="#A9B1BD"/>
<path d="M395.258 188.866C396.533 188.859 397.807 188.853 399.121 188.847C400.518 188.85 401.915 188.854 403.312 188.859C404.74 188.857 406.167 188.855 407.594 188.853C410.587 188.85 413.58 188.854 416.572 188.864C420.413 188.875 424.253 188.869 428.093 188.857C431.041 188.849 433.988 188.852 436.936 188.857C438.352 188.858 439.768 188.856 441.185 188.852C443.162 188.847 445.14 188.856 447.117 188.866C448.807 188.868 448.807 188.868 450.531 188.87C453.188 189.124 453.188 189.124 455.188 191.124C455.375 194.187 455.375 194.187 455.188 197.124C453.375 198.936 450.578 198.262 448.139 198.27C446.844 198.276 445.549 198.282 444.215 198.289C442.791 198.291 441.366 198.292 439.941 198.292C438.49 198.296 437.039 198.299 435.588 198.302C432.542 198.308 429.497 198.31 426.451 198.31C422.542 198.31 418.634 198.323 414.725 198.34C411.727 198.352 408.728 198.354 405.73 198.353C404.289 198.354 402.847 198.359 401.406 198.366C399.393 198.376 397.379 198.372 395.365 198.367C393.645 198.369 393.645 198.369 391.889 198.372C389.188 198.124 389.188 198.124 387.188 196.124C386.938 193.624 386.938 193.624 387.188 191.124C389.922 188.39 391.43 188.871 395.258 188.866Z" fill="#A9B1BD"/>
<path d="M384.595 26.8339C385.483 26.8211 386.371 26.8084 387.286 26.7952C388.242 26.793 389.198 26.7908 390.184 26.7885C391.169 26.7818 392.154 26.7752 393.169 26.7683C395.253 26.7582 397.336 26.7535 399.42 26.7538C402.609 26.7494 405.797 26.7131 408.986 26.6752C411.01 26.6693 413.035 26.6654 415.059 26.6635C416.013 26.6491 416.967 26.6347 417.95 26.6199C424.592 26.6658 424.592 26.6658 427.821 29.1532C428.272 29.8037 428.723 30.4542 429.188 31.1244C427.438 35.9994 427.438 35.9994 425.188 37.1244C423.753 37.2238 422.315 37.2627 420.877 37.2697C419.986 37.2761 419.095 37.2824 418.177 37.289C417.212 37.2901 416.248 37.2912 415.254 37.2924C413.771 37.2974 413.771 37.2974 412.257 37.3025C410.163 37.3075 408.069 37.3099 405.975 37.3097C402.767 37.3119 399.558 37.3301 396.35 37.349C394.318 37.352 392.286 37.3539 390.254 37.3549C389.291 37.3621 388.329 37.3693 387.337 37.3767C386.443 37.3736 385.549 37.3705 384.627 37.3673C383.84 37.3688 383.054 37.3702 382.243 37.3717C380.188 37.1244 380.188 37.1244 377.188 35.1244C376.812 32.1244 376.812 32.1244 377.188 29.1244C380.308 27.0443 381.044 26.8686 384.595 26.8339Z" fill="#A9B1BD"/>
<path d="M371.783 159.995C373.25 159.99 373.25 159.99 374.746 159.985C375.809 159.987 376.873 159.99 377.969 159.992C379.594 159.99 379.594 159.99 381.253 159.989C383.55 159.988 385.846 159.99 388.143 159.994C391.672 159.999 395.201 159.994 398.73 159.988C400.956 159.988 403.181 159.99 405.406 159.992C406.47 159.99 407.533 159.988 408.629 159.985C409.607 159.989 410.584 159.992 411.592 159.995C412.457 159.996 413.322 159.997 414.214 159.997C416.188 160.124 416.188 160.124 417.188 161.124C417.228 163.457 417.23 165.791 417.188 168.124C414.803 169.317 413.338 169.251 410.678 169.254C409.743 169.257 408.809 169.26 407.846 169.263C406.329 169.26 406.329 169.26 404.781 169.257C403.746 169.258 402.71 169.259 401.643 169.26C399.451 169.261 397.258 169.259 395.066 169.255C391.701 169.249 388.337 169.255 384.973 169.261C382.846 169.26 380.72 169.259 378.594 169.257C377.582 169.259 376.571 169.261 375.529 169.263C374.594 169.26 373.66 169.257 372.697 169.254C371.873 169.253 371.048 169.252 370.199 169.251C368.188 169.124 368.188 169.124 366.188 168.124C366.145 165.791 366.147 163.457 366.188 161.124C367.802 159.51 369.552 159.997 371.783 159.995Z" fill="#A9B1BD"/>
<path d="M471.767 20.9633C472.742 20.9537 473.716 20.9441 474.72 20.9342C476.311 20.9278 476.311 20.9278 477.934 20.9213C479.015 20.9156 480.096 20.9099 481.211 20.904C483.503 20.8946 485.796 20.888 488.088 20.8842C491.607 20.8745 495.124 20.8435 498.643 20.8119C500.865 20.8054 503.087 20.8001 505.309 20.7963C506.367 20.7839 507.425 20.7716 508.516 20.7589C509.493 20.7619 510.471 20.7649 511.478 20.768C512.773 20.7625 512.773 20.7625 514.093 20.7569C514.785 20.8782 515.476 20.9995 516.188 21.1244C518.188 24.1244 518.188 24.1244 517.938 26.1869C517.188 28.1244 517.188 28.1244 515.188 30.1244C513.221 30.3784 513.221 30.3784 510.785 30.3832C509.419 30.3927 509.419 30.3927 508.024 30.4023C507.038 30.3983 506.052 30.3942 505.035 30.39C504.024 30.392 503.013 30.3939 501.971 30.3958C499.83 30.3972 497.689 30.3935 495.548 30.3852C492.267 30.3745 488.986 30.385 485.705 30.3979C483.628 30.3965 481.55 30.394 479.473 30.39C478.488 30.3941 477.504 30.3981 476.49 30.4023C475.575 30.396 474.661 30.3897 473.719 30.3832C472.915 30.3816 472.11 30.38 471.281 30.3784C469.188 30.1244 469.188 30.1244 466.188 28.1244C465.938 25.0619 465.938 25.0619 466.188 22.1244C467.798 20.5142 469.54 20.9809 471.767 20.9633Z" fill="#A9B1BD"/>
<path d="M370.73 119.802C371.706 119.805 372.682 119.809 373.688 119.812C374.663 119.796 375.639 119.78 376.645 119.763C377.577 119.762 378.509 119.762 379.469 119.761C380.325 119.758 381.182 119.755 382.064 119.752C383.115 119.936 383.115 119.936 384.188 120.124C386.188 123.124 386.188 123.124 385.875 125.749C385.188 128.124 385.188 128.124 384.188 129.124C380.715 129.375 377.23 129.31 373.75 129.312C372.77 129.324 371.789 129.336 370.779 129.349C369.843 129.351 368.906 129.353 367.941 129.355C367.078 129.359 366.216 129.363 365.326 129.367C363.188 129.124 363.188 129.124 361.188 127.124C360.938 124.624 360.938 124.624 361.188 122.124C364.126 119.186 366.711 119.833 370.73 119.802Z" fill="#A9B1BD"/>
<path d="M383.977 76.0268C384.918 76.03 385.859 76.0332 386.828 76.0365C387.813 76.0449 388.798 76.0533 389.812 76.0619C390.805 76.0664 391.798 76.0709 392.82 76.0756C395.276 76.0874 397.732 76.1039 400.188 76.1244C401.312 78.3744 401.312 78.3744 402.188 81.1244C401.242 83.2963 401.242 83.2963 400.188 85.1244C396.729 85.1534 393.271 85.1712 389.812 85.1869C388.335 85.1995 388.335 85.1995 386.828 85.2123C385.417 85.2171 385.417 85.2171 383.977 85.2221C383.107 85.2273 382.238 85.2325 381.342 85.2379C379.188 85.1244 379.188 85.1244 377.188 84.1244C377.188 81.8144 377.188 79.5044 377.188 77.1244C379.64 75.898 381.238 76.0103 383.977 76.0268Z" fill="#A9B1BD"/>
<path d="M458.688 36.8119C459.555 36.7958 460.423 36.7797 461.316 36.7631C462.15 36.7624 462.984 36.7618 463.844 36.7611C464.605 36.7582 465.366 36.7552 466.15 36.7521C468.729 37.2233 469.643 38.0346 471.188 40.1244C470.766 44.5455 470.766 44.5455 469.188 46.1244C465.715 46.3754 462.23 46.3096 458.75 46.3119C457.77 46.3242 456.789 46.3364 455.779 46.349C454.843 46.351 453.906 46.3529 452.941 46.3549C452.078 46.359 451.216 46.3631 450.326 46.3673C448.188 46.1244 448.188 46.1244 446.188 44.1244C445.875 41.6244 445.875 41.6244 446.188 39.1244C450.359 36.3435 453.787 36.7937 458.688 36.8119Z" fill="#A9B1BD"/>
</svg>
